<svg xmlns:rdf="http://www.w3.org/1999/02/22-rdf-syntax-ns#" xmlns="http://www.w3.org/2000/svg" height="100%" width="100%" version="1.0" xmlns:cc="http://creativecommons.org/ns#" xmlns:xlink="http://www.w3.org/1999/xlink" viewBox="0 0 138.78308 137.02832" xmlns:dc="http://purl.org/dc/elements/1.1/">
<defs>
<filter id="r" height="1.7759" width="1.133" color-interpolation-filters="sRGB" y="-.38793" x="-.066503">
<feGaussianBlur stdDeviation="0.96983517"/>
</filter>
<filter id="k" height="1.2199" width="1.0912" color-interpolation-filters="sRGB" y="-.10995" x="-.045599">
<feGaussianBlur stdDeviation="0.17919525"/>
</filter>
<filter id="l" color-interpolation-filters="sRGB">
<feGaussianBlur stdDeviation="0.29952589"/>
</filter>
<filter id="m" height="1.9273" width="1.4447" color-interpolation-filters="sRGB" y="-.46365" x="-.22236">
<feGaussianBlur stdDeviation="0.49154045"/>
</filter>
<filter id="n" height="1.3891" width="2.0377" color-interpolation-filters="sRGB" y="-.19457" x="-.51885">
<feGaussianBlur stdDeviation="0.49154045"/>
</filter>
<filter id="o" height="1.3238" width="1.8756" color-interpolation-filters="sRGB" y="-.16188" x="-.43778">
<feGaussianBlur stdDeviation="0.49154045"/>
</filter>
<filter id="p" height="1.2594" width="2.1674" color-interpolation-filters="sRGB" y="-.12971" x="-.58370">
<feGaussianBlur stdDeviation="0.49154045"/>
</filter>
<filter id="q" height="1.5898" width="1.711" color-interpolation-filters="sRGB" y="-.29492" x="-.35549">
<feGaussianBlur stdDeviation="0.49154045"/>
</filter>
<linearGradient id="b" y2="9" xlink:href="#t" gradientUnits="userSpaceOnUse" y1="5" x2="28" x1="28"/>
<linearGradient id="c" y2="5" xlink:href="#t" gradientUnits="userSpaceOnUse" y1="9" gradientTransform="matrix(.98968 -.14331 .14331 .98968 -.58370 2.7625)" x2="12" x1="14"/>
<linearGradient id="d" y2="63" xlink:href="#s" gradientUnits="userSpaceOnUse" y1="35" x2="-5" x1="29"/>
<radialGradient id="a" cx="14.737" xlink:href="#t" gradientUnits="userSpaceOnUse" cy="4.205" r="15.925" gradientTransform="matrix(2.652 .56778 -.20491 .95711 -23.484 -5.1499)"/>
<linearGradient id="t">
<stop stop-color="#f9f9f9" stop-opacity=".98519" offset="0"/>
<stop stop-color="#d5d5d5" offset="1"/>
</linearGradient>
<linearGradient id="s">
<stop stop-color="#ffd73b" offset="0"/>
<stop stop-color="#ee8400" offset="1"/>
</linearGradient>
<linearGradient id="e" y2="17" xlink:href="#s" gradientUnits="userSpaceOnUse" y1="33.347" gradientTransform="matrix(.96429 0 0 .96429 .89286 .53571)" x2="2" x1="31.832"/>
<linearGradient id="f" y2="19" xlink:href="#s" gradientUnits="userSpaceOnUse" y1="28" gradientTransform="matrix(.96429 0 0 .96429 .89286 .53571)" x2="32" x1="43"/>
<linearGradient id="g" y2="25" xlink:href="#s" gradientUnits="userSpaceOnUse" y1="24.047" gradientTransform="matrix(.96429 0 0 .96429 .89286 .53571)" x2="15" x1="8.25"/>
<linearGradient id="h" y2="25.126" xlink:href="#s" gradientUnits="userSpaceOnUse" y1="25.126" gradientTransform="matrix(.96429 0 0 .96429 .89286 .53571)" x2="17.337" x1="12"/>
<linearGradient id="i" y2="25.13" xlink:href="#s" gradientUnits="userSpaceOnUse" y1="25" gradientTransform="matrix(.96429 0 0 .96429 .89286 .53571)" x2="25.337" x1="20"/>
<linearGradient id="j" y2="25.084" xlink:href="#s" gradientUnits="userSpaceOnUse" y1="25" gradientTransform="matrix(.96429 0 0 .96429 .89286 .53571)" x2="33" x1="25"/>
</defs>
<g transform="translate(-25.608 -24.486)">
<g transform="matrix(2.0616 0 0 2.0616 -1413.4 -34.747)">
<path d="m727.59 95.111c8.906-4.58 14.425-18.061 14.425-19.078-1.3563-1.3563-7.1206-3.0517-12.715-4.408-4.408-5.7643-9.6858-8.5948-11.698-12.885 0.0753-1.6201 0.0276-3.0468 0.50861-2.8822 2.4372 6.7786 19.489 15.901 21.023 13.485-1.182-1.8577-3.2626-3.9797-4.2384-6.8732-1.2174-3.6097-3.6204-7.9628-5.2557-11.19 0.60095-0.79871 0.80358-0.69322 1.8649-0.67816 0.61055 2.6386 9.2182 21.236 12.376 19.158-0.28833-3.1716-1.5988-18.036-2.7662-23.544-0.26545-1.2525 2.1573-0.26067 2.7662-0.53068 0.0942 2.6546 2.8822 21.87 2.8822 21.87l4.1532-12.927 4.6628 0.38069-5.0862 10.511s-2.204 8.3074-1.0172 7.6292c1.1868-0.67816 3.3908-2.0345 3.3908-2.0345l0.67815 2.3735c-4.3177 0.77139-10.388 16.807-8.1009 21.531-0.94188-0.60908-15.56-0.76324-17.853 0.08999z" fill-rule="evenodd" stroke="#000" stroke-width=".17886px" fill="#591f0f"/>
<g fill-rule="evenodd" stroke="#000" fill="#008500">
<path d="m712.01 46.194c7.1498-1.2005 13.554-10.802 15.258 2.0345 1.6519 12.442-6.1034 21.87-19.836 22.379-13.733 0.50862-8.246 0.13024-8.3074-8.3074-0.08-11.192 5.9136-14.936 12.885-16.106z" stroke-width=".17886px"/>
<path d="m758.09 42.96c3.8958 2.3566 13.509 22.072 0.72906 19.982s-12.815 4.532-21.041-6.4756c-8.2264-11.008-7.1537-18.25 1.0933-20.034 8.247-1.7843 15.433 4.2378 19.219 6.5281z" stroke-width=".17886px"/>
<path d="m750.19 45.596c1.0295 3.5393-14.443 19.131-25.129 10.304-10.686-8.8272-19.305-5.5814-13.663-16.031 5.6421-10.45 16.151-13.369 27.108-9.2181 10.956 4.1505 10.684 11.505 11.685 14.945z" stroke-width=".20453px"/>
</g>
<g transform="matrix(.10256 .037328 -.037328 .10256 705.43 60.564)">
<path d="m40 40c0 1.6569-7.835 3-17.5 3s-17.5-1.343-17.5-3 7.835-3 17.5-3 17.5 1.343 17.5 3z" fill-rule="evenodd" fill-opacity=".76860" transform="matrix(.85113 0 0 1 2.597 .25263)" filter="url(#r)"/>
<g>
<path style="color:#000000" d="m32.714 17.893c4.743-4.293 9.797-2.853 8.679 3.857-0.964 5.786-9.643 9.643-9.643 9.643v-3.8571s5.3188-1.9894 5.7857-3.8571c0.964-3.858-2.893-3.858-4.822-1.929v-3.8571z" fill="url(#f)"/>
<path style="color:#000000" d="m9.5816 35.697c-2.903-0.447-2.903 3.41-0.9745 5.339 3.8571 1.9286 24.611 2.6281 26.036 0 1.2996-2.3979 1.9286-3.8571 0-5.7857-2.1562-2.1562-23.123 0.89323-25.061 0.44662z" fill="url(#d)"/>
<path style="color:#000000" d="m8.6071 10.179c8.7943 2.5452 17.458 2.2139 26.036 0-2.1262 9.7405-1.9871 16.827 0 27-9.2035 3.5432-17.689 2.2396-26.036 0 0.60368-8.8777 1.4799-14.372 0-27z" fill="url(#e)"/>
</g>
<g fill-opacity=".89286">
<path d="m12.464 15c1.973-1.2194 3.4958-0.93825 4.8214 0 0.5586 6.5682 0.2886 12.929 0 19.286-1.6071 1.2197-3.2143 1.5852-4.8214 0 0.45735-4.9499 1.5361-10.98 0-19.286z" fill="url(#h)"/>
<path fill="url(#g)" d="m8.9688 13.644c0.79942 8.6769 0.36112 13.92-0.12054 20.16 0.24107-0.14082 0.48214-0.29918 0.72321-0.48214 0.53785-6.1981 0.95264-12.449 0-19.286-0.1972-0.14-0.396-0.284-0.6027-0.392z"/>
<path d="m20.179 15c0.964-0.964 2.892-0.964 4.821 0 0.49911 6.6781 0.36242 14.003 0 20.25-1.6071 1.2707-3.2143 1.3275-4.8214 0-0.27181-6.1568-0.37433-13.447 0-20.25z" fill="url(#i)"/>
<path d="m27.893 15c1.4346-0.57531 2.7646-1.4988 4.8214 0-1.3807 6.8888-0.46861 13.013 0 19.286-1.5244 0.99242-3.0829 1.5772-4.8214 0-0.63788-6.4286-1.0705-12.857 0-19.286z" fill="url(#j)"/>
</g>
<g>
<path style="color:#000000" d="m9.744 19.618c-0.17256 0.20301-3.0654 0.20301-3.0654-1.7256s-0.96429-0.96429-0.96429-4.8214c-1.9344-4.4 3.0238-10.986 7.7147-10.607 5.307 1.3174 8.571-2.464 15.428 1.9289 3.8571 0.96429 5.7857 0 6.75 2.8929 0.96429 2.8929 2.8929 8.6786 0 5.7857-2.893-2.893-3.607-2.072-3.607-1.072 0 3.8571-2.2699 3.7714-4.635 2.4214-2.365-1.35-6.2222-4.2429-7.1865-0.38571-0.96429 3.8571-3.8571 4.8214-3.8571 1.9286 0-2.8929-4.8214-6.75-4.8214-2.8929s-2.7102 4.0906-1.756 6.547z" fill="url(#a)"/>
<path style="color:#000000" d="m8.6348 9.426s-0.29792-0.8822 1.5381-2.1585 3.2557 1.5494 4.102 0.41644c0.84637-1.133 1.4061-4.2453 3.6721-2.5526l2.266 1.6927s-6.4157 5.6408-11.578 2.6019z" fill="url(#c)"/>
<path style="color:#000000" d="m23.242 5.9789c1.875-2.0481 2.425-0.6159 2.758 0.0211 0 0 2-2 3-1s1 2 1 2-3.8526 2.2947-6.7579-1.0211z" fill="url(#b)"/>
</g>
<g fill="#fff">
<g fill-opacity=".70536">
<path style="color:#000000" d="m9 41c-1.563-2.016-1.4349-3.093-1-4 0.5685 0.474 1.8068 0.724 3.032 0.979-1.2809 0.404-3.0989 0.27-2.032 3.021z" filter="url(#q)"/>
<path style="color:#000000" d="m35.368 16.421c2.4426-0.09852 4.0956 0.95569 5.3053 1.9368 0 0-0.92632-4.0421-5.3053-1.9368z" filter="url(#m)"/>
<path style="color:#000000" d="m12.8 15.411c0.60312 3.2064 0.66264 5.5975 0.8421 8.1684 0.33949-3.0927-0.5616-7.6032 1.1789-9.0947-0.67368 0.09635-1.3474 0.17426-2.0211 0.92632z" filter="url(#p)"/>
<path style="color:#000000" d="m20.211 21.895 0.16842-6.5684c0.8421-1.1008 1.6842-0.58592 2.5263-0.67368-2.6138 2.0709-2.1306 4.7612-2.6947 7.2421z" filter="url(#o)"/>
<path style="color:#000000" d="m27.537 21.221-0.08421-5.3053c0.94804-1.2034 1.5251-0.5519 2.2737-0.75789-1.6725 1.0783-1.8021 3.6996-2.1895 6.0632z" filter="url(#n)"/>
</g>
<path style="color:#000000" d="m6.0632 11.453c-0.0044-0.324 2.477-7.6462 8.4208-7.8319 4.211 0.0375 8.841-0.4152 11.79 1.0947-1.136-2.7626-7.726-2.1357-11.621-1.4316-2.412-1.6729-8.9285 1.7862-8.5898 8.1688z" filter="url(#l)"/>
<path style="color:#000000" d="m9.0947 9.0105c1.2083-2.0592 3.1223-1.6486 5.2213-0.5894 1.676-4.1976 2.978-3.711 4.21-2.3579-2.024-1.1466-3.047 0.9587-4.21 2.6105-1.863-0.4381-3.79-1.1654-5.2213 0.3368z" filter="url(#k)"/>
</g>
</g>
<g transform="matrix(.10748 -.018952 .018952 .10748 707.03 51.598)">
<path d="m40 40c0 1.6569-7.835 3-17.5 3s-17.5-1.343-17.5-3 7.835-3 17.5-3 17.5 1.343 17.5 3z" fill-rule="evenodd" fill-opacity=".76860" transform="matrix(.85113 0 0 1 2.597 .25263)" filter="url(#r)"/>
<g>
<path style="color:#000000" d="m32.714 17.893c4.743-4.293 9.797-2.853 8.679 3.857-0.964 5.786-9.643 9.643-9.643 9.643v-3.8571s5.3188-1.9894 5.7857-3.8571c0.964-3.858-2.893-3.858-4.822-1.929v-3.8571z" fill="url(#f)"/>
<path style="color:#000000" d="m9.5816 35.697c-2.903-0.447-2.903 3.41-0.9745 5.339 3.8571 1.9286 24.611 2.6281 26.036 0 1.2996-2.3979 1.9286-3.8571 0-5.7857-2.1562-2.1562-23.123 0.89323-25.061 0.44662z" fill="url(#d)"/>
<path style="color:#000000" d="m8.6071 10.179c8.7943 2.5452 17.458 2.2139 26.036 0-2.1262 9.7405-1.9871 16.827 0 27-9.2035 3.5432-17.689 2.2396-26.036 0 0.60368-8.8777 1.4799-14.372 0-27z" fill="url(#e)"/>
</g>
<g fill-opacity=".89286">
<path d="m12.464 15c1.973-1.2194 3.4958-0.93825 4.8214 0 0.5586 6.5682 0.2886 12.929 0 19.286-1.6071 1.2197-3.2143 1.5852-4.8214 0 0.45735-4.9499 1.5361-10.98 0-19.286z" fill="url(#h)"/>
<path d="m8.9688 13.644c0.79942 8.6769 0.36112 13.92-0.12054 20.16 0.24107-0.14082 0.48214-0.29918 0.72321-0.48214 0.53785-6.1981 0.95264-12.449 0-19.286-0.1972-0.14-0.396-0.284-0.6027-0.392z" fill="url(#g)"/>
<path d="m20.179 15c0.964-0.964 2.892-0.964 4.821 0 0.49911 6.6781 0.36242 14.003 0 20.25-1.6071 1.2707-3.2143 1.3275-4.8214 0-0.27181-6.1568-0.37433-13.447 0-20.25z" fill="url(#i)"/>
<path d="m27.893 15c1.4346-0.57531 2.7646-1.4988 4.8214 0-1.3807 6.8888-0.46861 13.013 0 19.286-1.5244 0.99242-3.0829 1.5772-4.8214 0-0.63788-6.4286-1.0705-12.857 0-19.286z" fill="url(#j)"/>
</g>
<g>
<path style="color:#000000" d="m9.744 19.618c-0.17256 0.20301-3.0654 0.20301-3.0654-1.7256s-0.96429-0.96429-0.96429-4.8214c-1.9344-4.4 3.0238-10.986 7.7147-10.607 5.307 1.3174 8.571-2.464 15.428 1.9289 3.8571 0.96429 5.7857 0 6.75 2.8929 0.96429 2.8929 2.8929 8.6786 0 5.7857-2.893-2.893-3.607-2.072-3.607-1.072 0 3.8571-2.2699 3.7714-4.635 2.4214-2.365-1.35-6.2222-4.2429-7.1865-0.38571-0.96429 3.8571-3.8571 4.8214-3.8571 1.9286 0-2.8929-4.8214-6.75-4.8214-2.8929s-2.7102 4.0906-1.756 6.547z" fill="url(#a)"/>
<path style="color:#000000" d="m8.6348 9.426s-0.29792-0.8822 1.5381-2.1585 3.2557 1.5494 4.102 0.41644c0.84637-1.133 1.4061-4.2453 3.6721-2.5526l2.266 1.6927s-6.4157 5.6408-11.578 2.6019z" fill="url(#c)"/>
<path style="color:#000000" d="m23.242 5.9789c1.875-2.0481 2.425-0.6159 2.758 0.0211 0 0 2-2 3-1s1 2 1 2-3.8526 2.2947-6.7579-1.0211z" fill="url(#b)"/>
</g>
<g fill="#fff">
<g fill-opacity=".70536">
<path style="color:#000000" d="m9 41c-1.563-2.016-1.4349-3.093-1-4 0.5685 0.474 1.8068 0.724 3.032 0.979-1.2809 0.404-3.0989 0.27-2.032 3.021z" filter="url(#q)"/>
<path style="color:#000000" d="m35.368 16.421c2.4426-0.09852 4.0956 0.95569 5.3053 1.9368 0 0-0.92632-4.0421-5.3053-1.9368z" filter="url(#m)"/>
<path style="color:#000000" d="m12.8 15.411c0.60312 3.2064 0.66264 5.5975 0.8421 8.1684 0.33949-3.0927-0.5616-7.6032 1.1789-9.0947-0.67368 0.09635-1.3474 0.17426-2.0211 0.92632z" filter="url(#p)"/>
<path style="color:#000000" d="m20.211 21.895 0.16842-6.5684c0.8421-1.1008 1.6842-0.58592 2.5263-0.67368-2.6138 2.0709-2.1306 4.7612-2.6947 7.2421z" filter="url(#o)"/>
<path style="color:#000000" d="m27.537 21.221-0.08421-5.3053c0.94804-1.2034 1.5251-0.5519 2.2737-0.75789-1.6725 1.0783-1.8021 3.6996-2.1895 6.0632z" filter="url(#n)"/>
</g>
<path style="color:#000000" d="m6.0632 11.453c-0.0044-0.324 2.477-7.6462 8.4208-7.8319 4.211 0.0375 8.841-0.4152 11.79 1.0947-1.136-2.7626-7.726-2.1357-11.621-1.4316-2.412-1.6729-8.9285 1.7862-8.5898 8.1688z" filter="url(#l)"/>
<path style="color:#000000" d="m9.0947 9.0105c1.2083-2.0592 3.1223-1.6486 5.2213-0.5894 1.676-4.1976 2.978-3.711 4.21-2.3579-2.024-1.1466-3.047 0.9587-4.21 2.6105-1.863-0.4381-3.79-1.1654-5.2213 0.3368z" filter="url(#k)"/>
</g>
</g>
<g transform="matrix(.054570 .094519 -.094519 .054570 720.4 56.288)">
<path d="m40 40c0 1.6569-7.835 3-17.5 3s-17.5-1.343-17.5-3 7.835-3 17.5-3 17.5 1.343 17.5 3z" fill-rule="evenodd" fill-opacity=".76860" transform="matrix(.85113 0 0 1 2.597 .25263)" filter="url(#r)"/>
<g>
<path style="color:#000000" d="m32.714 17.893c4.743-4.293 9.797-2.853 8.679 3.857-0.964 5.786-9.643 9.643-9.643 9.643v-3.8571s5.3188-1.9894 5.7857-3.8571c0.964-3.858-2.893-3.858-4.822-1.929v-3.8571z" fill="url(#f)"/>
<path style="color:#000000" d="m9.5816 35.697c-2.903-0.447-2.903 3.41-0.9745 5.339 3.8571 1.9286 24.611 2.6281 26.036 0 1.2996-2.3979 1.9286-3.8571 0-5.7857-2.1562-2.1562-23.123 0.89323-25.061 0.44662z" fill="url(#d)"/>
<path style="color:#000000" d="m8.6071 10.179c8.7943 2.5452 17.458 2.2139 26.036 0-2.1262 9.7405-1.9871 16.827 0 27-9.2035 3.5432-17.689 2.2396-26.036 0 0.60368-8.8777 1.4799-14.372 0-27z" fill="url(#e)"/>
</g>
<g fill-opacity=".89286">
<path d="m12.464 15c1.973-1.2194 3.4958-0.93825 4.8214 0 0.5586 6.5682 0.2886 12.929 0 19.286-1.6071 1.2197-3.2143 1.5852-4.8214 0 0.45735-4.9499 1.5361-10.98 0-19.286z" fill="url(#h)"/>
<path fill="url(#g)" d="m8.9688 13.644c0.79942 8.6769 0.36112 13.92-0.12054 20.16 0.24107-0.14082 0.48214-0.29918 0.72321-0.48214 0.53785-6.1981 0.95264-12.449 0-19.286-0.1972-0.14-0.396-0.284-0.6027-0.392z"/>
<path d="m20.179 15c0.964-0.964 2.892-0.964 4.821 0 0.49911 6.6781 0.36242 14.003 0 20.25-1.6071 1.2707-3.2143 1.3275-4.8214 0-0.27181-6.1568-0.37433-13.447 0-20.25z" fill="url(#i)"/>
<path d="m27.893 15c1.4346-0.57531 2.7646-1.4988 4.8214 0-1.3807 6.8888-0.46861 13.013 0 19.286-1.5244 0.99242-3.0829 1.5772-4.8214 0-0.63788-6.4286-1.0705-12.857 0-19.286z" fill="url(#j)"/>
</g>
<g>
<path style="color:#000000" d="m9.744 19.618c-0.17256 0.20301-3.0654 0.20301-3.0654-1.7256s-0.96429-0.96429-0.96429-4.8214c-1.9344-4.4 3.0238-10.986 7.7147-10.607 5.307 1.3174 8.571-2.464 15.428 1.9289 3.8571 0.96429 5.7857 0 6.75 2.8929 0.96429 2.8929 2.8929 8.6786 0 5.7857-2.893-2.893-3.607-2.072-3.607-1.072 0 3.8571-2.2699 3.7714-4.635 2.4214-2.365-1.35-6.2222-4.2429-7.1865-0.38571-0.96429 3.8571-3.8571 4.8214-3.8571 1.9286 0-2.8929-4.8214-6.75-4.8214-2.8929s-2.7102 4.0906-1.756 6.547z" fill="url(#a)"/>
<path style="color:#000000" d="m8.6348 9.426s-0.29792-0.8822 1.5381-2.1585 3.2557 1.5494 4.102 0.41644c0.84637-1.133 1.4061-4.2453 3.6721-2.5526l2.266 1.6927s-6.4157 5.6408-11.578 2.6019z" fill="url(#c)"/>
<path style="color:#000000" d="m23.242 5.9789c1.875-2.0481 2.425-0.6159 2.758 0.0211 0 0 2-2 3-1s1 2 1 2-3.8526 2.2947-6.7579-1.0211z" fill="url(#b)"/>
</g>
<g fill="#fff">
<g fill-opacity=".70536">
<path style="color:#000000" d="m9 41c-1.563-2.016-1.4349-3.093-1-4 0.5685 0.474 1.8068 0.724 3.032 0.979-1.2809 0.404-3.0989 0.27-2.032 3.021z" filter="url(#q)"/>
<path style="color:#000000" d="m35.368 16.421c2.4426-0.09852 4.0956 0.95569 5.3053 1.9368 0 0-0.92632-4.0421-5.3053-1.9368z" filter="url(#m)"/>
<path style="color:#000000" d="m12.8 15.411c0.60312 3.2064 0.66264 5.5975 0.8421 8.1684 0.33949-3.0927-0.5616-7.6032 1.1789-9.0947-0.67368 0.09635-1.3474 0.17426-2.0211 0.92632z" filter="url(#p)"/>
<path style="color:#000000" d="m20.211 21.895 0.16842-6.5684c0.8421-1.1008 1.6842-0.58592 2.5263-0.67368-2.6138 2.0709-2.1306 4.7612-2.6947 7.2421z" filter="url(#o)"/>
<path style="color:#000000" d="m27.537 21.221-0.08421-5.3053c0.94804-1.2034 1.5251-0.5519 2.2737-0.75789-1.6725 1.0783-1.8021 3.6996-2.1895 6.0632z" filter="url(#n)"/>
</g>
<path style="color:#000000" d="m6.0632 11.453c-0.0044-0.324 2.477-7.6462 8.4208-7.8319 4.211 0.0375 8.841-0.4152 11.79 1.0947-1.136-2.7626-7.726-2.1357-11.621-1.4316-2.412-1.6729-8.9285 1.7862-8.5898 8.1688z" filter="url(#l)"/>
<path style="color:#000000" d="m9.0947 9.0105c1.2083-2.0592 3.1223-1.6486 5.2213-0.5894 1.676-4.1976 2.978-3.711 4.21-2.3579-2.024-1.1466-3.047 0.9587-4.21 2.6105-1.863-0.4381-3.79-1.1654-5.2213 0.3368z" filter="url(#k)"/>
</g>
</g>
<g transform="matrix(.10914 0 0 .10914 719.93 34.521)">
<path d="m40 40c0 1.6569-7.835 3-17.5 3s-17.5-1.343-17.5-3 7.835-3 17.5-3 17.5 1.343 17.5 3z" fill-rule="evenodd" fill-opacity=".76860" transform="matrix(.85113 0 0 1 2.597 .25263)" filter="url(#r)"/>
<g>
<path style="color:#000000" d="m32.714 17.893c4.743-4.293 9.797-2.853 8.679 3.857-0.964 5.786-9.643 9.643-9.643 9.643v-3.8571s5.3188-1.9894 5.7857-3.8571c0.964-3.858-2.893-3.858-4.822-1.929v-3.8571z" fill="url(#f)"/>
<path style="color:#000000" d="m9.5816 35.697c-2.903-0.447-2.903 3.41-0.9745 5.339 3.8571 1.9286 24.611 2.6281 26.036 0 1.2996-2.3979 1.9286-3.8571 0-5.7857-2.1562-2.1562-23.123 0.89323-25.061 0.44662z" fill="url(#d)"/>
<path style="color:#000000" d="m8.6071 10.179c8.7943 2.5452 17.458 2.2139 26.036 0-2.1262 9.7405-1.9871 16.827 0 27-9.2035 3.5432-17.689 2.2396-26.036 0 0.60368-8.8777 1.4799-14.372 0-27z" fill="url(#e)"/>
</g>
<g fill-opacity=".89286">
<path d="m12.464 15c1.973-1.2194 3.4958-0.93825 4.8214 0 0.5586 6.5682 0.2886 12.929 0 19.286-1.6071 1.2197-3.2143 1.5852-4.8214 0 0.45735-4.9499 1.5361-10.98 0-19.286z" fill="url(#h)"/>
<path d="m8.9688 13.644c0.79942 8.6769 0.36112 13.92-0.12054 20.16 0.24107-0.14082 0.48214-0.29918 0.72321-0.48214 0.53785-6.1981 0.95264-12.449 0-19.286-0.1972-0.14-0.396-0.284-0.6027-0.392z" fill="url(#g)"/>
<path d="m20.179 15c0.964-0.964 2.892-0.964 4.821 0 0.49911 6.6781 0.36242 14.003 0 20.25-1.6071 1.2707-3.2143 1.3275-4.8214 0-0.27181-6.1568-0.37433-13.447 0-20.25z" fill="url(#i)"/>
<path d="m27.893 15c1.4346-0.57531 2.7646-1.4988 4.8214 0-1.3807 6.8888-0.46861 13.013 0 19.286-1.5244 0.99242-3.0829 1.5772-4.8214 0-0.63788-6.4286-1.0705-12.857 0-19.286z" fill="url(#j)"/>
</g>
<g>
<path style="color:#000000" d="m9.744 19.618c-0.17256 0.20301-3.0654 0.20301-3.0654-1.7256s-0.96429-0.96429-0.96429-4.8214c-1.9344-4.4 3.0238-10.986 7.7147-10.607 5.307 1.3174 8.571-2.464 15.428 1.9289 3.8571 0.96429 5.7857 0 6.75 2.8929 0.96429 2.8929 2.8929 8.6786 0 5.7857-2.893-2.893-3.607-2.072-3.607-1.072 0 3.8571-2.2699 3.7714-4.635 2.4214-2.365-1.35-6.2222-4.2429-7.1865-0.38571-0.96429 3.8571-3.8571 4.8214-3.8571 1.9286 0-2.8929-4.8214-6.75-4.8214-2.8929s-2.7102 4.0906-1.756 6.547z" fill="url(#a)"/>
<path style="color:#000000" d="m8.6348 9.426s-0.29792-0.8822 1.5381-2.1585 3.2557 1.5494 4.102 0.41644c0.84637-1.133 1.4061-4.2453 3.6721-2.5526l2.266 1.6927s-6.4157 5.6408-11.578 2.6019z" fill="url(#c)"/>
<path style="color:#000000" d="m23.242 5.9789c1.875-2.0481 2.425-0.6159 2.758 0.0211 0 0 2-2 3-1s1 2 1 2-3.8526 2.2947-6.7579-1.0211z" fill="url(#b)"/>
</g>
<g fill="#fff">
<g fill-opacity=".70536">
<path style="color:#000000" d="m9 41c-1.563-2.016-1.4349-3.093-1-4 0.5685 0.474 1.8068 0.724 3.032 0.979-1.2809 0.404-3.0989 0.27-2.032 3.021z" filter="url(#q)"/>
<path style="color:#000000" d="m35.368 16.421c2.4426-0.09852 4.0956 0.95569 5.3053 1.9368 0 0-0.92632-4.0421-5.3053-1.9368z" filter="url(#m)"/>
<path style="color:#000000" d="m12.8 15.411c0.60312 3.2064 0.66264 5.5975 0.8421 8.1684 0.33949-3.0927-0.5616-7.6032 1.1789-9.0947-0.67368 0.09635-1.3474 0.17426-2.0211 0.92632z" filter="url(#p)"/>
<path style="color:#000000" d="m20.211 21.895 0.16842-6.5684c0.8421-1.1008 1.6842-0.58592 2.5263-0.67368-2.6138 2.0709-2.1306 4.7612-2.6947 7.2421z" filter="url(#o)"/>
<path style="color:#000000" d="m27.537 21.221-0.08421-5.3053c0.94804-1.2034 1.5251-0.5519 2.2737-0.75789-1.6725 1.0783-1.8021 3.6996-2.1895 6.0632z" filter="url(#n)"/>
</g>
<path style="color:#000000" d="m6.0632 11.453c-0.0044-0.324 2.477-7.6462 8.4208-7.8319 4.211 0.0375 8.841-0.4152 11.79 1.0947-1.136-2.7626-7.726-2.1357-11.621-1.4316-2.412-1.6729-8.9285 1.7862-8.5898 8.1688z" filter="url(#l)"/>
<path style="color:#000000" d="m9.0947 9.0105c1.2083-2.0592 3.1223-1.6486 5.2213-0.5894 1.676-4.1976 2.978-3.711 4.21-2.3579-2.024-1.1466-3.047 0.9587-4.21 2.6105-1.863-0.4381-3.79-1.1654-5.2213 0.3368z" filter="url(#k)"/>
</g>
</g>
<g transform="matrix(.054570 -.094519 .094519 .054570 721.92 47.58)">
<path d="m40 40c0 1.6569-7.835 3-17.5 3s-17.5-1.343-17.5-3 7.835-3 17.5-3 17.5 1.343 17.5 3z" fill-rule="evenodd" fill-opacity=".76860" transform="matrix(.85113 0 0 1 2.597 .25263)" filter="url(#r)"/>
<g>
<path style="color:#000000" d="m32.714 17.893c4.743-4.293 9.797-2.853 8.679 3.857-0.964 5.786-9.643 9.643-9.643 9.643v-3.8571s5.3188-1.9894 5.7857-3.8571c0.964-3.858-2.893-3.858-4.822-1.929v-3.8571z" fill="url(#f)"/>
<path style="color:#000000" d="m9.5816 35.697c-2.903-0.447-2.903 3.41-0.9745 5.339 3.8571 1.9286 24.611 2.6281 26.036 0 1.2996-2.3979 1.9286-3.8571 0-5.7857-2.1562-2.1562-23.123 0.89323-25.061 0.44662z" fill="url(#d)"/>
<path style="color:#000000" d="m8.6071 10.179c8.7943 2.5452 17.458 2.2139 26.036 0-2.1262 9.7405-1.9871 16.827 0 27-9.2035 3.5432-17.689 2.2396-26.036 0 0.60368-8.8777 1.4799-14.372 0-27z" fill="url(#e)"/>
</g>
<g fill-opacity=".89286">
<path d="m12.464 15c1.973-1.2194 3.4958-0.93825 4.8214 0 0.5586 6.5682 0.2886 12.929 0 19.286-1.6071 1.2197-3.2143 1.5852-4.8214 0 0.45735-4.9499 1.5361-10.98 0-19.286z" fill="url(#h)"/>
<path fill="url(#g)" d="m8.9688 13.644c0.79942 8.6769 0.36112 13.92-0.12054 20.16 0.24107-0.14082 0.48214-0.29918 0.72321-0.48214 0.53785-6.1981 0.95264-12.449 0-19.286-0.1972-0.14-0.396-0.284-0.6027-0.392z"/>
<path d="m20.179 15c0.964-0.964 2.892-0.964 4.821 0 0.49911 6.6781 0.36242 14.003 0 20.25-1.6071 1.2707-3.2143 1.3275-4.8214 0-0.27181-6.1568-0.37433-13.447 0-20.25z" fill="url(#i)"/>
<path d="m27.893 15c1.4346-0.57531 2.7646-1.4988 4.8214 0-1.3807 6.8888-0.46861 13.013 0 19.286-1.5244 0.99242-3.0829 1.5772-4.8214 0-0.63788-6.4286-1.0705-12.857 0-19.286z" fill="url(#j)"/>
</g>
<g>
<path style="color:#000000" d="m9.744 19.618c-0.17256 0.20301-3.0654 0.20301-3.0654-1.7256s-0.96429-0.96429-0.96429-4.8214c-1.9344-4.4 3.0238-10.986 7.7147-10.607 5.307 1.3174 8.571-2.464 15.428 1.9289 3.8571 0.96429 5.7857 0 6.75 2.8929 0.96429 2.8929 2.8929 8.6786 0 5.7857-2.893-2.893-3.607-2.072-3.607-1.072 0 3.8571-2.2699 3.7714-4.635 2.4214-2.365-1.35-6.2222-4.2429-7.1865-0.38571-0.96429 3.8571-3.8571 4.8214-3.8571 1.9286 0-2.8929-4.8214-6.75-4.8214-2.8929s-2.7102 4.0906-1.756 6.547z" fill="url(#a)"/>
<path style="color:#000000" d="m8.6348 9.426s-0.29792-0.8822 1.5381-2.1585 3.2557 1.5494 4.102 0.41644c0.84637-1.133 1.4061-4.2453 3.6721-2.5526l2.266 1.6927s-6.4157 5.6408-11.578 2.6019z" fill="url(#c)"/>
<path style="color:#000000" d="m23.242 5.9789c1.875-2.0481 2.425-0.6159 2.758 0.0211 0 0 2-2 3-1s1 2 1 2-3.8526 2.2947-6.7579-1.0211z" fill="url(#b)"/>
</g>
<g fill="#fff">
<g fill-opacity=".70536">
<path style="color:#000000" d="m9 41c-1.563-2.016-1.4349-3.093-1-4 0.5685 0.474 1.8068 0.724 3.032 0.979-1.2809 0.404-3.0989 0.27-2.032 3.021z" filter="url(#q)"/>
<path style="color:#000000" d="m35.368 16.421c2.4426-0.09852 4.0956 0.95569 5.3053 1.9368 0 0-0.92632-4.0421-5.3053-1.9368z" filter="url(#m)"/>
<path style="color:#000000" d="m12.8 15.411c0.60312 3.2064 0.66264 5.5975 0.8421 8.1684 0.33949-3.0927-0.5616-7.6032 1.1789-9.0947-0.67368 0.09635-1.3474 0.17426-2.0211 0.92632z" filter="url(#p)"/>
<path style="color:#000000" d="m20.211 21.895 0.16842-6.5684c0.8421-1.1008 1.6842-0.58592 2.5263-0.67368-2.6138 2.0709-2.1306 4.7612-2.6947 7.2421z" filter="url(#o)"/>
<path style="color:#000000" d="m27.537 21.221-0.08421-5.3053c0.94804-1.2034 1.5251-0.5519 2.2737-0.75789-1.6725 1.0783-1.8021 3.6996-2.1895 6.0632z" filter="url(#n)"/>
</g>
<path style="color:#000000" d="m6.0632 11.453c-0.0044-0.324 2.477-7.6462 8.4208-7.8319 4.211 0.0375 8.841-0.4152 11.79 1.0947-1.136-2.7626-7.726-2.1357-11.621-1.4316-2.412-1.6729-8.9285 1.7862-8.5898 8.1688z" filter="url(#l)"/>
<path style="color:#000000" d="m9.0947 9.0105c1.2083-2.0592 3.1223-1.6486 5.2213-0.5894 1.676-4.1976 2.978-3.711 4.21-2.3579-2.024-1.1466-3.047 0.9587-4.21 2.6105-1.863-0.4381-3.79-1.1654-5.2213 0.3368z" filter="url(#k)"/>
</g>
</g>
<g transform="matrix(.098915 -.046125 .046125 .098915 732.66 35.17)">
<path d="m40 40c0 1.6569-7.835 3-17.5 3s-17.5-1.343-17.5-3 7.835-3 17.5-3 17.5 1.343 17.5 3z" fill-rule="evenodd" fill-opacity=".76860" transform="matrix(.85113 0 0 1 2.597 .25263)" filter="url(#r)"/>
<g>
<path style="color:#000000" d="m32.714 17.893c4.743-4.293 9.797-2.853 8.679 3.857-0.964 5.786-9.643 9.643-9.643 9.643v-3.8571s5.3188-1.9894 5.7857-3.8571c0.964-3.858-2.893-3.858-4.822-1.929v-3.8571z" fill="url(#f)"/>
<path style="color:#000000" d="m9.5816 35.697c-2.903-0.447-2.903 3.41-0.9745 5.339 3.8571 1.9286 24.611 2.6281 26.036 0 1.2996-2.3979 1.9286-3.8571 0-5.7857-2.1562-2.1562-23.123 0.89323-25.061 0.44662z" fill="url(#d)"/>
<path style="color:#000000" d="m8.6071 10.179c8.7943 2.5452 17.458 2.2139 26.036 0-2.1262 9.7405-1.9871 16.827 0 27-9.2035 3.5432-17.689 2.2396-26.036 0 0.60368-8.8777 1.4799-14.372 0-27z" fill="url(#e)"/>
</g>
<g fill-opacity=".89286">
<path d="m12.464 15c1.973-1.2194 3.4958-0.93825 4.8214 0 0.5586 6.5682 0.2886 12.929 0 19.286-1.6071 1.2197-3.2143 1.5852-4.8214 0 0.45735-4.9499 1.5361-10.98 0-19.286z" fill="url(#h)"/>
<path d="m8.9688 13.644c0.79942 8.6769 0.36112 13.92-0.12054 20.16 0.24107-0.14082 0.48214-0.29918 0.72321-0.48214 0.53785-6.1981 0.95264-12.449 0-19.286-0.1972-0.14-0.396-0.284-0.6027-0.392z" fill="url(#g)"/>
<path d="m20.179 15c0.964-0.964 2.892-0.964 4.821 0 0.49911 6.6781 0.36242 14.003 0 20.25-1.6071 1.2707-3.2143 1.3275-4.8214 0-0.27181-6.1568-0.37433-13.447 0-20.25z" fill="url(#i)"/>
<path d="m27.893 15c1.4346-0.57531 2.7646-1.4988 4.8214 0-1.3807 6.8888-0.46861 13.013 0 19.286-1.5244 0.99242-3.0829 1.5772-4.8214 0-0.63788-6.4286-1.0705-12.857 0-19.286z" fill="url(#j)"/>
</g>
<g>
<path style="color:#000000" d="m9.744 19.618c-0.17256 0.20301-3.0654 0.20301-3.0654-1.7256s-0.96429-0.96429-0.96429-4.8214c-1.9344-4.4 3.0238-10.986 7.7147-10.607 5.307 1.3174 8.571-2.464 15.428 1.9289 3.8571 0.96429 5.7857 0 6.75 2.8929 0.96429 2.8929 2.8929 8.6786 0 5.7857-2.893-2.893-3.607-2.072-3.607-1.072 0 3.8571-2.2699 3.7714-4.635 2.4214-2.365-1.35-6.2222-4.2429-7.1865-0.38571-0.96429 3.8571-3.8571 4.8214-3.8571 1.9286 0-2.8929-4.8214-6.75-4.8214-2.8929s-2.7102 4.0906-1.756 6.547z" fill="url(#a)"/>
<path style="color:#000000" d="m8.6348 9.426s-0.29792-0.8822 1.5381-2.1585 3.2557 1.5494 4.102 0.41644c0.84637-1.133 1.4061-4.2453 3.6721-2.5526l2.266 1.6927s-6.4157 5.6408-11.578 2.6019z" fill="url(#c)"/>
<path style="color:#000000" d="m23.242 5.9789c1.875-2.0481 2.425-0.6159 2.758 0.0211 0 0 2-2 3-1s1 2 1 2-3.8526 2.2947-6.7579-1.0211z" fill="url(#b)"/>
</g>
<g fill="#fff">
<g fill-opacity=".70536">
<path style="color:#000000" d="m9 41c-1.563-2.016-1.4349-3.093-1-4 0.5685 0.474 1.8068 0.724 3.032 0.979-1.2809 0.404-3.0989 0.27-2.032 3.021z" filter="url(#q)"/>
<path style="color:#000000" d="m35.368 16.421c2.4426-0.09852 4.0956 0.95569 5.3053 1.9368 0 0-0.92632-4.0421-5.3053-1.9368z" filter="url(#m)"/>
<path style="color:#000000" d="m12.8 15.411c0.60312 3.2064 0.66264 5.5975 0.8421 8.1684 0.33949-3.0927-0.5616-7.6032 1.1789-9.0947-0.67368 0.09635-1.3474 0.17426-2.0211 0.92632z" filter="url(#p)"/>
<path style="color:#000000" d="m20.211 21.895 0.16842-6.5684c0.8421-1.1008 1.6842-0.58592 2.5263-0.67368-2.6138 2.0709-2.1306 4.7612-2.6947 7.2421z" filter="url(#o)"/>
<path style="color:#000000" d="m27.537 21.221-0.08421-5.3053c0.94804-1.2034 1.5251-0.5519 2.2737-0.75789-1.6725 1.0783-1.8021 3.6996-2.1895 6.0632z" filter="url(#n)"/>
</g>
<path style="color:#000000" d="m6.0632 11.453c-0.0044-0.324 2.477-7.6462 8.4208-7.8319 4.211 0.0375 8.841-0.4152 11.79 1.0947-1.136-2.7626-7.726-2.1357-11.621-1.4316-2.412-1.6729-8.9285 1.7862-8.5898 8.1688z" filter="url(#l)"/>
<path style="color:#000000" d="m9.0947 9.0105c1.2083-2.0592 3.1223-1.6486 5.2213-0.5894 1.676-4.1976 2.978-3.711 4.21-2.3579-2.024-1.1466-3.047 0.9587-4.21 2.6105-1.863-0.4381-3.79-1.1654-5.2213 0.3368z" filter="url(#k)"/>
</g>
</g>
<g transform="matrix(.094519 .054570 -.054570 .094519 755.48 44.297)">
<path d="m40 40c0 1.6569-7.835 3-17.5 3s-17.5-1.343-17.5-3 7.835-3 17.5-3 17.5 1.343 17.5 3z" fill-rule="evenodd" fill-opacity=".76860" transform="matrix(.85113 0 0 1 2.597 .25263)" filter="url(#r)"/>
<g>
<path style="color:#000000" d="m32.714 17.893c4.743-4.293 9.797-2.853 8.679 3.857-0.964 5.786-9.643 9.643-9.643 9.643v-3.8571s5.3188-1.9894 5.7857-3.8571c0.964-3.858-2.893-3.858-4.822-1.929v-3.8571z" fill="url(#f)"/>
<path style="color:#000000" d="m9.5816 35.697c-2.903-0.447-2.903 3.41-0.9745 5.339 3.8571 1.9286 24.611 2.6281 26.036 0 1.2996-2.3979 1.9286-3.8571 0-5.7857-2.1562-2.1562-23.123 0.89323-25.061 0.44662z" fill="url(#d)"/>
<path style="color:#000000" d="m8.6071 10.179c8.7943 2.5452 17.458 2.2139 26.036 0-2.1262 9.7405-1.9871 16.827 0 27-9.2035 3.5432-17.689 2.2396-26.036 0 0.60368-8.8777 1.4799-14.372 0-27z" fill="url(#e)"/>
</g>
<g fill-opacity=".89286">
<path d="m12.464 15c1.973-1.2194 3.4958-0.93825 4.8214 0 0.5586 6.5682 0.2886 12.929 0 19.286-1.6071 1.2197-3.2143 1.5852-4.8214 0 0.45735-4.9499 1.5361-10.98 0-19.286z" fill="url(#h)"/>
<path fill="url(#g)" d="m8.9688 13.644c0.79942 8.6769 0.36112 13.92-0.12054 20.16 0.24107-0.14082 0.48214-0.29918 0.72321-0.48214 0.53785-6.1981 0.95264-12.449 0-19.286-0.1972-0.14-0.396-0.284-0.6027-0.392z"/>
<path d="m20.179 15c0.964-0.964 2.892-0.964 4.821 0 0.49911 6.6781 0.36242 14.003 0 20.25-1.6071 1.2707-3.2143 1.3275-4.8214 0-0.27181-6.1568-0.37433-13.447 0-20.25z" fill="url(#i)"/>
<path d="m27.893 15c1.4346-0.57531 2.7646-1.4988 4.8214 0-1.3807 6.8888-0.46861 13.013 0 19.286-1.5244 0.99242-3.0829 1.5772-4.8214 0-0.63788-6.4286-1.0705-12.857 0-19.286z" fill="url(#j)"/>
</g>
<g>
<path style="color:#000000" d="m9.744 19.618c-0.17256 0.20301-3.0654 0.20301-3.0654-1.7256s-0.96429-0.96429-0.96429-4.8214c-1.9344-4.4 3.0238-10.986 7.7147-10.607 5.307 1.3174 8.571-2.464 15.428 1.9289 3.8571 0.96429 5.7857 0 6.75 2.8929 0.96429 2.8929 2.8929 8.6786 0 5.7857-2.893-2.893-3.607-2.072-3.607-1.072 0 3.8571-2.2699 3.7714-4.635 2.4214-2.365-1.35-6.2222-4.2429-7.1865-0.38571-0.96429 3.8571-3.8571 4.8214-3.8571 1.9286 0-2.8929-4.8214-6.75-4.8214-2.8929s-2.7102 4.0906-1.756 6.547z" fill="url(#a)"/>
<path style="color:#000000" d="m8.6348 9.426s-0.29792-0.8822 1.5381-2.1585 3.2557 1.5494 4.102 0.41644c0.84637-1.133 1.4061-4.2453 3.6721-2.5526l2.266 1.6927s-6.4157 5.6408-11.578 2.6019z" fill="url(#c)"/>
<path style="color:#000000" d="m23.242 5.9789c1.875-2.0481 2.425-0.6159 2.758 0.0211 0 0 2-2 3-1s1 2 1 2-3.8526 2.2947-6.7579-1.0211z" fill="url(#b)"/>
</g>
<g fill="#fff">
<g fill-opacity=".70536">
<path style="color:#000000" d="m9 41c-1.563-2.016-1.4349-3.093-1-4 0.5685 0.474 1.8068 0.724 3.032 0.979-1.2809 0.404-3.0989 0.27-2.032 3.021z" filter="url(#q)"/>
<path style="color:#000000" d="m35.368 16.421c2.4426-0.09852 4.0956 0.95569 5.3053 1.9368 0 0-0.92632-4.0421-5.3053-1.9368z" filter="url(#m)"/>
<path style="color:#000000" d="m12.8 15.411c0.60312 3.2064 0.66264 5.5975 0.8421 8.1684 0.33949-3.0927-0.5616-7.6032 1.1789-9.0947-0.67368 0.09635-1.3474 0.17426-2.0211 0.92632z" filter="url(#p)"/>
<path style="color:#000000" d="m20.211 21.895 0.16842-6.5684c0.8421-1.1008 1.6842-0.58592 2.5263-0.67368-2.6138 2.0709-2.1306 4.7612-2.6947 7.2421z" filter="url(#o)"/>
<path style="color:#000000" d="m27.537 21.221-0.08421-5.3053c0.94804-1.2034 1.5251-0.5519 2.2737-0.75789-1.6725 1.0783-1.8021 3.6996-2.1895 6.0632z" filter="url(#n)"/>
</g>
<path style="color:#000000" d="m6.0632 11.453c-0.0044-0.324 2.477-7.6462 8.4208-7.8319 4.211 0.0375 8.841-0.4152 11.79 1.0947-1.136-2.7626-7.726-2.1357-11.621-1.4316-2.412-1.6729-8.9285 1.7862-8.5898 8.1688z" filter="url(#l)"/>
<path style="color:#000000" d="m9.0947 9.0105c1.2083-2.0592 3.1223-1.6486 5.2213-0.5894 1.676-4.1976 2.978-3.711 4.21-2.3579-2.024-1.1466-3.047 0.9587-4.21 2.6105-1.863-0.4381-3.79-1.1654-5.2213 0.3368z" filter="url(#k)"/>
</g>
</g>
<g transform="matrix(.046125 -.098915 .098915 .046125 757.86 58.311)">
<path d="m40 40c0 1.6569-7.835 3-17.5 3s-17.5-1.343-17.5-3 7.835-3 17.5-3 17.5 1.343 17.5 3z" fill-rule="evenodd" fill-opacity=".76860" transform="matrix(.85113 0 0 1 2.597 .25263)" filter="url(#r)"/>
<g>
<path style="color:#000000" d="m32.714 17.893c4.743-4.293 9.797-2.853 8.679 3.857-0.964 5.786-9.643 9.643-9.643 9.643v-3.8571s5.3188-1.9894 5.7857-3.8571c0.964-3.858-2.893-3.858-4.822-1.929v-3.8571z" fill="url(#f)"/>
<path style="color:#000000" d="m9.5816 35.697c-2.903-0.447-2.903 3.41-0.9745 5.339 3.8571 1.9286 24.611 2.6281 26.036 0 1.2996-2.3979 1.9286-3.8571 0-5.7857-2.1562-2.1562-23.123 0.89323-25.061 0.44662z" fill="url(#d)"/>
<path style="color:#000000" d="m8.6071 10.179c8.7943 2.5452 17.458 2.2139 26.036 0-2.1262 9.7405-1.9871 16.827 0 27-9.2035 3.5432-17.689 2.2396-26.036 0 0.60368-8.8777 1.4799-14.372 0-27z" fill="url(#e)"/>
</g>
<g fill-opacity=".89286">
<path d="m12.464 15c1.973-1.2194 3.4958-0.93825 4.8214 0 0.5586 6.5682 0.2886 12.929 0 19.286-1.6071 1.2197-3.2143 1.5852-4.8214 0 0.45735-4.9499 1.5361-10.98 0-19.286z" fill="url(#h)"/>
<path d="m8.9688 13.644c0.79942 8.6769 0.36112 13.92-0.12054 20.16 0.24107-0.14082 0.48214-0.29918 0.72321-0.48214 0.53785-6.1981 0.95264-12.449 0-19.286-0.1972-0.14-0.396-0.284-0.6027-0.392z" fill="url(#g)"/>
<path d="m20.179 15c0.964-0.964 2.892-0.964 4.821 0 0.49911 6.6781 0.36242 14.003 0 20.25-1.6071 1.2707-3.2143 1.3275-4.8214 0-0.27181-6.1568-0.37433-13.447 0-20.25z" fill="url(#i)"/>
<path d="m27.893 15c1.4346-0.57531 2.7646-1.4988 4.8214 0-1.3807 6.8888-0.46861 13.013 0 19.286-1.5244 0.99242-3.0829 1.5772-4.8214 0-0.63788-6.4286-1.0705-12.857 0-19.286z" fill="url(#j)"/>
</g>
<g>
<path style="color:#000000" d="m9.744 19.618c-0.17256 0.20301-3.0654 0.20301-3.0654-1.7256s-0.96429-0.96429-0.96429-4.8214c-1.9344-4.4 3.0238-10.986 7.7147-10.607 5.307 1.3174 8.571-2.464 15.428 1.9289 3.8571 0.96429 5.7857 0 6.75 2.8929 0.96429 2.8929 2.8929 8.6786 0 5.7857-2.893-2.893-3.607-2.072-3.607-1.072 0 3.8571-2.2699 3.7714-4.635 2.4214-2.365-1.35-6.2222-4.2429-7.1865-0.38571-0.96429 3.8571-3.8571 4.8214-3.8571 1.9286 0-2.8929-4.8214-6.75-4.8214-2.8929s-2.7102 4.0906-1.756 6.547z" fill="url(#a)"/>
<path style="color:#000000" d="m8.6348 9.426s-0.29792-0.8822 1.5381-2.1585 3.2557 1.5494 4.102 0.41644c0.84637-1.133 1.4061-4.2453 3.6721-2.5526l2.266 1.6927s-6.4157 5.6408-11.578 2.6019z" fill="url(#c)"/>
<path style="color:#000000" d="m23.242 5.9789c1.875-2.0481 2.425-0.6159 2.758 0.0211 0 0 2-2 3-1s1 2 1 2-3.8526 2.2947-6.7579-1.0211z" fill="url(#b)"/>
</g>
<g fill="#fff">
<g fill-opacity=".70536">
<path style="color:#000000" d="m9 41c-1.563-2.016-1.4349-3.093-1-4 0.5685 0.474 1.8068 0.724 3.032 0.979-1.2809 0.404-3.0989 0.27-2.032 3.021z" filter="url(#q)"/>
<path style="color:#000000" d="m35.368 16.421c2.4426-0.09852 4.0956 0.95569 5.3053 1.9368 0 0-0.92632-4.0421-5.3053-1.9368z" filter="url(#m)"/>
<path style="color:#000000" d="m12.8 15.411c0.60312 3.2064 0.66264 5.5975 0.8421 8.1684 0.33949-3.0927-0.5616-7.6032 1.1789-9.0947-0.67368 0.09635-1.3474 0.17426-2.0211 0.92632z" filter="url(#p)"/>
<path style="color:#000000" d="m20.211 21.895 0.16842-6.5684c0.8421-1.1008 1.6842-0.58592 2.5263-0.67368-2.6138 2.0709-2.1306 4.7612-2.6947 7.2421z" filter="url(#o)"/>
<path style="color:#000000" d="m27.537 21.221-0.08421-5.3053c0.94804-1.2034 1.5251-0.5519 2.2737-0.75789-1.6725 1.0783-1.8021 3.6996-2.1895 6.0632z" filter="url(#n)"/>
</g>
<path style="color:#000000" d="m6.0632 11.453c-0.0044-0.324 2.477-7.6462 8.4208-7.8319 4.211 0.0375 8.841-0.4152 11.79 1.0947-1.136-2.7626-7.726-2.1357-11.621-1.4316-2.412-1.6729-8.9285 1.7862-8.5898 8.1688z" filter="url(#l)"/>
<path style="color:#000000" d="m9.0947 9.0105c1.2083-2.0592 3.1223-1.6486 5.2213-0.5894 1.676-4.1976 2.978-3.711 4.21-2.3579-2.024-1.1466-3.047 0.9587-4.21 2.6105-1.863-0.4381-3.79-1.1654-5.2213 0.3368z" filter="url(#k)"/>
</g>
</g>
<g transform="matrix(.077174 .077174 -.077174 .077174 737.68 42.892)">
<path d="m40 40c0 1.6569-7.835 3-17.5 3s-17.5-1.343-17.5-3 7.835-3 17.5-3 17.5 1.343 17.5 3z" fill-rule="evenodd" fill-opacity=".76860" transform="matrix(.85113 0 0 1 2.597 .25263)" filter="url(#r)"/>
<g>
<path style="color:#000000" d="m32.714 17.893c4.743-4.293 9.797-2.853 8.679 3.857-0.964 5.786-9.643 9.643-9.643 9.643v-3.8571s5.3188-1.9894 5.7857-3.8571c0.964-3.858-2.893-3.858-4.822-1.929v-3.8571z" fill="url(#f)"/>
<path style="color:#000000" d="m9.5816 35.697c-2.903-0.447-2.903 3.41-0.9745 5.339 3.8571 1.9286 24.611 2.6281 26.036 0 1.2996-2.3979 1.9286-3.8571 0-5.7857-2.1562-2.1562-23.123 0.89323-25.061 0.44662z" fill="url(#d)"/>
<path style="color:#000000" d="m8.6071 10.179c8.7943 2.5452 17.458 2.2139 26.036 0-2.1262 9.7405-1.9871 16.827 0 27-9.2035 3.5432-17.689 2.2396-26.036 0 0.60368-8.8777 1.4799-14.372 0-27z" fill="url(#e)"/>
</g>
<g fill-opacity=".89286">
<path d="m12.464 15c1.973-1.2194 3.4958-0.93825 4.8214 0 0.5586 6.5682 0.2886 12.929 0 19.286-1.6071 1.2197-3.2143 1.5852-4.8214 0 0.45735-4.9499 1.5361-10.98 0-19.286z" fill="url(#h)"/>
<path d="m8.9688 13.644c0.79942 8.6769 0.36112 13.92-0.12054 20.16 0.24107-0.14082 0.48214-0.29918 0.72321-0.48214 0.53785-6.1981 0.95264-12.449 0-19.286-0.1972-0.14-0.396-0.284-0.6027-0.392z" fill="url(#g)"/>
<path d="m20.179 15c0.964-0.964 2.892-0.964 4.821 0 0.49911 6.6781 0.36242 14.003 0 20.25-1.6071 1.2707-3.2143 1.3275-4.8214 0-0.27181-6.1568-0.37433-13.447 0-20.25z" fill="url(#i)"/>
<path d="m27.893 15c1.4346-0.57531 2.7646-1.4988 4.8214 0-1.3807 6.8888-0.46861 13.013 0 19.286-1.5244 0.99242-3.0829 1.5772-4.8214 0-0.63788-6.4286-1.0705-12.857 0-19.286z" fill="url(#j)"/>
</g>
<g>
<path style="color:#000000" d="m9.744 19.618c-0.17256 0.20301-3.0654 0.20301-3.0654-1.7256s-0.96429-0.96429-0.96429-4.8214c-1.9344-4.4 3.0238-10.986 7.7147-10.607 5.307 1.3174 8.571-2.464 15.428 1.9289 3.8571 0.96429 5.7857 0 6.75 2.8929 0.96429 2.8929 2.8929 8.6786 0 5.7857-2.893-2.893-3.607-2.072-3.607-1.072 0 3.8571-2.2699 3.7714-4.635 2.4214-2.365-1.35-6.2222-4.2429-7.1865-0.38571-0.96429 3.8571-3.8571 4.8214-3.8571 1.9286 0-2.8929-4.8214-6.75-4.8214-2.8929s-2.7102 4.0906-1.756 6.547z" fill="url(#a)"/>
<path style="color:#000000" d="m8.6348 9.426s-0.29792-0.8822 1.5381-2.1585 3.2557 1.5494 4.102 0.41644c0.84637-1.133 1.4061-4.2453 3.6721-2.5526l2.266 1.6927s-6.4157 5.6408-11.578 2.6019z" fill="url(#c)"/>
<path style="color:#000000" d="m23.242 5.9789c1.875-2.0481 2.425-0.6159 2.758 0.0211 0 0 2-2 3-1s1 2 1 2-3.8526 2.2947-6.7579-1.0211z" fill="url(#b)"/>
</g>
<g fill="#fff">
<g fill-opacity=".70536">
<path style="color:#000000" d="m9 41c-1.563-2.016-1.4349-3.093-1-4 0.5685 0.474 1.8068 0.724 3.032 0.979-1.2809 0.404-3.0989 0.27-2.032 3.021z" filter="url(#q)"/>
<path style="color:#000000" d="m35.368 16.421c2.4426-0.09852 4.0956 0.95569 5.3053 1.9368 0 0-0.92632-4.0421-5.3053-1.9368z" filter="url(#m)"/>
<path style="color:#000000" d="m12.8 15.411c0.60312 3.2064 0.66264 5.5975 0.8421 8.1684 0.33949-3.0927-0.5616-7.6032 1.1789-9.0947-0.67368 0.09635-1.3474 0.17426-2.0211 0.92632z" filter="url(#p)"/>
<path style="color:#000000" d="m20.211 21.895 0.16842-6.5684c0.8421-1.1008 1.6842-0.58592 2.5263-0.67368-2.6138 2.0709-2.1306 4.7612-2.6947 7.2421z" filter="url(#o)"/>
<path style="color:#000000" d="m27.537 21.221-0.08421-5.3053c0.94804-1.2034 1.5251-0.5519 2.2737-0.75789-1.6725 1.0783-1.8021 3.6996-2.1895 6.0632z" filter="url(#n)"/>
</g>
<path style="color:#000000" d="m6.0632 11.453c-0.0044-0.324 2.477-7.6462 8.4208-7.8319 4.211 0.0375 8.841-0.4152 11.79 1.0947-1.136-2.7626-7.726-2.1357-11.621-1.4316-2.412-1.6729-8.9285 1.7862-8.5898 8.1688z" filter="url(#l)"/>
<path style="color:#000000" d="m9.0947 9.0105c1.2083-2.0592 3.1223-1.6486 5.2213-0.5894 1.676-4.1976 2.978-3.711 4.21-2.3579-2.024-1.1466-3.047 0.9587-4.21 2.6105-1.863-0.4381-3.79-1.1654-5.2213 0.3368z" filter="url(#k)"/>
</g>
</g>
<g transform="matrix(.094519 -.054570 .054570 .094519 745.46 55.626)">
<path d="m40 40c0 1.6569-7.835 3-17.5 3s-17.5-1.343-17.5-3 7.835-3 17.5-3 17.5 1.343 17.5 3z" fill-rule="evenodd" fill-opacity=".76860" transform="matrix(.85113 0 0 1 2.597 .25263)" filter="url(#r)"/>
<g>
<path style="color:#000000" d="m32.714 17.893c4.743-4.293 9.797-2.853 8.679 3.857-0.964 5.786-9.643 9.643-9.643 9.643v-3.8571s5.3188-1.9894 5.7857-3.8571c0.964-3.858-2.893-3.858-4.822-1.929v-3.8571z" fill="url(#f)"/>
<path style="color:#000000" d="m9.5816 35.697c-2.903-0.447-2.903 3.41-0.9745 5.339 3.8571 1.9286 24.611 2.6281 26.036 0 1.2996-2.3979 1.9286-3.8571 0-5.7857-2.1562-2.1562-23.123 0.89323-25.061 0.44662z" fill="url(#d)"/>
<path style="color:#000000" d="m8.6071 10.179c8.7943 2.5452 17.458 2.2139 26.036 0-2.1262 9.7405-1.9871 16.827 0 27-9.2035 3.5432-17.689 2.2396-26.036 0 0.60368-8.8777 1.4799-14.372 0-27z" fill="url(#e)"/>
</g>
<g fill-opacity=".89286">
<path d="m12.464 15c1.973-1.2194 3.4958-0.93825 4.8214 0 0.5586 6.5682 0.2886 12.929 0 19.286-1.6071 1.2197-3.2143 1.5852-4.8214 0 0.45735-4.9499 1.5361-10.98 0-19.286z" fill="url(#h)"/>
<path fill="url(#g)" d="m8.9688 13.644c0.79942 8.6769 0.36112 13.92-0.12054 20.16 0.24107-0.14082 0.48214-0.29918 0.72321-0.48214 0.53785-6.1981 0.95264-12.449 0-19.286-0.1972-0.14-0.396-0.284-0.6027-0.392z"/>
<path d="m20.179 15c0.964-0.964 2.892-0.964 4.821 0 0.49911 6.6781 0.36242 14.003 0 20.25-1.6071 1.2707-3.2143 1.3275-4.8214 0-0.27181-6.1568-0.37433-13.447 0-20.25z" fill="url(#i)"/>
<path d="m27.893 15c1.4346-0.57531 2.7646-1.4988 4.8214 0-1.3807 6.8888-0.46861 13.013 0 19.286-1.5244 0.99242-3.0829 1.5772-4.8214 0-0.63788-6.4286-1.0705-12.857 0-19.286z" fill="url(#j)"/>
</g>
<g>
<path style="color:#000000" d="m9.744 19.618c-0.17256 0.20301-3.0654 0.20301-3.0654-1.7256s-0.96429-0.96429-0.96429-4.8214c-1.9344-4.4 3.0238-10.986 7.7147-10.607 5.307 1.3174 8.571-2.464 15.428 1.9289 3.8571 0.96429 5.7857 0 6.75 2.8929 0.96429 2.8929 2.8929 8.6786 0 5.7857-2.893-2.893-3.607-2.072-3.607-1.072 0 3.8571-2.2699 3.7714-4.635 2.4214-2.365-1.35-6.2222-4.2429-7.1865-0.38571-0.96429 3.8571-3.8571 4.8214-3.8571 1.9286 0-2.8929-4.8214-6.75-4.8214-2.8929s-2.7102 4.0906-1.756 6.547z" fill="url(#a)"/>
<path style="color:#000000" d="m8.6348 9.426s-0.29792-0.8822 1.5381-2.1585 3.2557 1.5494 4.102 0.41644c0.84637-1.133 1.4061-4.2453 3.6721-2.5526l2.266 1.6927s-6.4157 5.6408-11.578 2.6019z" fill="url(#c)"/>
<path style="color:#000000" d="m23.242 5.9789c1.875-2.0481 2.425-0.6159 2.758 0.0211 0 0 2-2 3-1s1 2 1 2-3.8526 2.2947-6.7579-1.0211z" fill="url(#b)"/>
</g>
<g fill="#fff">
<g fill-opacity=".70536">
<path style="color:#000000" d="m9 41c-1.563-2.016-1.4349-3.093-1-4 0.5685 0.474 1.8068 0.724 3.032 0.979-1.2809 0.404-3.0989 0.27-2.032 3.021z" filter="url(#q)"/>
<path style="color:#000000" d="m35.368 16.421c2.4426-0.09852 4.0956 0.95569 5.3053 1.9368 0 0-0.92632-4.0421-5.3053-1.9368z" filter="url(#m)"/>
<path style="color:#000000" d="m12.8 15.411c0.60312 3.2064 0.66264 5.5975 0.8421 8.1684 0.33949-3.0927-0.5616-7.6032 1.1789-9.0947-0.67368 0.09635-1.3474 0.17426-2.0211 0.92632z" filter="url(#p)"/>
<path style="color:#000000" d="m20.211 21.895 0.16842-6.5684c0.8421-1.1008 1.6842-0.58592 2.5263-0.67368-2.6138 2.0709-2.1306 4.7612-2.6947 7.2421z" filter="url(#o)"/>
<path style="color:#000000" d="m27.537 21.221-0.08421-5.3053c0.94804-1.2034 1.5251-0.5519 2.2737-0.75789-1.6725 1.0783-1.8021 3.6996-2.1895 6.0632z" filter="url(#n)"/>
</g>
<path style="color:#000000" d="m6.0632 11.453c-0.0044-0.324 2.477-7.6462 8.4208-7.8319 4.211 0.0375 8.841-0.4152 11.79 1.0947-1.136-2.7626-7.726-2.1357-11.621-1.4316-2.412-1.6729-8.9285 1.7862-8.5898 8.1688z" filter="url(#l)"/>
<path style="color:#000000" d="m9.0947 9.0105c1.2083-2.0592 3.1223-1.6486 5.2213-0.5894 1.676-4.1976 2.978-3.711 4.21-2.3579-2.024-1.1466-3.047 0.9587-4.21 2.6105-1.863-0.4381-3.79-1.1654-5.2213 0.3368z" filter="url(#k)"/>
</g>
</g>
</g>
</g>
</svg>
