<svg xmlns:rdf="http://www.w3.org/1999/02/22-rdf-syntax-ns#" xmlns="http://www.w3.org/2000/svg" height="100%" width="100%" version="1.0" xmlns:cc="http://creativecommons.org/ns#" xmlns:xlink="http://www.w3.org/1999/xlink" viewBox="0 0 138.78308 137.02832" xmlns:dc="http://purl.org/dc/elements/1.1/">
<defs>
<filter id="r" height="1.776" width="1.133" color-interpolation-filters="sRGB" y="-.3879" x="-.06650">
<feGaussianBlur stdDeviation="0.96983517"/>
</filter>
<filter id="k" height="1.22" width="1.091" color-interpolation-filters="sRGB" y="-.1099" x="-.04560">
<feGaussianBlur stdDeviation="0.17919525"/>
</filter>
<filter id="l" color-interpolation-filters="sRGB">
<feGaussianBlur stdDeviation="0.29952589"/>
</filter>
<filter id="m" height="1.927" width="1.445" color-interpolation-filters="sRGB" y="-.4637" x="-.2224">
<feGaussianBlur stdDeviation="0.49154045"/>
</filter>
<filter id="n" height="1.389" width="2.038" color-interpolation-filters="sRGB" y="-.1946" x="-.5188">
<feGaussianBlur stdDeviation="0.49154045"/>
</filter>
<filter id="o" height="1.324" width="1.876" color-interpolation-filters="sRGB" y="-.1619" x="-.4378">
<feGaussianBlur stdDeviation="0.49154045"/>
</filter>
<filter id="p" height="1.259" width="2.167" color-interpolation-filters="sRGB" y="-.1297" x="-.5837">
<feGaussianBlur stdDeviation="0.49154045"/>
</filter>
<filter id="q" height="1.59" width="1.711" color-interpolation-filters="sRGB" y="-.2949" x="-.3555">
<feGaussianBlur stdDeviation="0.49154045"/>
</filter>
<linearGradient id="b" y2="9" xlink:href="#t" gradientUnits="userSpaceOnUse" y1="5" x2="28" x1="28"/>
<linearGradient id="c" y2="5" xlink:href="#t" gradientUnits="userSpaceOnUse" y1="9" gradientTransform="matrix(.9897 -.1433 .1433 .9897 -.5837 2.763)" x2="12" x1="14"/>
<linearGradient id="d" y2="63" xlink:href="#s" gradientUnits="userSpaceOnUse" y1="35" x2="-5" x1="29"/>
<radialGradient id="a" cx="14.74" xlink:href="#t" gradientUnits="userSpaceOnUse" cy="4.205" r="15.93" gradientTransform="matrix(2.652 .5678 -.2049 .9571 -23.48 -5.15)"/>
<linearGradient id="t">
<stop stop-color="#f9f9f9" stop-opacity=".9852" offset="0"/>
<stop stop-color="#d5d5d5" offset="1"/>
</linearGradient>
<linearGradient id="s">
<stop stop-color="#ffd73b" offset="0"/>
<stop stop-color="#ee8400" offset="1"/>
</linearGradient>
<linearGradient id="e" y2="17" xlink:href="#s" gradientUnits="userSpaceOnUse" y1="33.35" gradientTransform="matrix(.9643 0 0 .9643 .8929 .5357)" x2="2" x1="31.83"/>
<linearGradient id="f" y2="19" xlink:href="#s" gradientUnits="userSpaceOnUse" y1="28" gradientTransform="matrix(.9643 0 0 .9643 .8929 .5357)" x2="32" x1="43"/>
<linearGradient id="g" y2="25" xlink:href="#s" gradientUnits="userSpaceOnUse" y1="24.05" gradientTransform="matrix(.9643 0 0 .9643 .8929 .5357)" x2="15" x1="8.25"/>
<linearGradient id="h" y2="25.13" xlink:href="#s" gradientUnits="userSpaceOnUse" y1="25.13" gradientTransform="matrix(.9643 0 0 .9643 .8929 .5357)" x2="17.34" x1="12"/>
<linearGradient id="i" y2="25.13" xlink:href="#s" gradientUnits="userSpaceOnUse" y1="25" gradientTransform="matrix(.9643 0 0 .9643 .8929 .5357)" x2="25.34" x1="20"/>
<linearGradient id="j" y2="25.08" xlink:href="#s" gradientUnits="userSpaceOnUse" y1="25" gradientTransform="matrix(.9643 0 0 .9643 .8929 .5357)" x2="33" x1="25"/>
</defs>
<g transform="translate(-25.61 -24.49)">
<g transform="matrix(2.062 0 0 2.062 -1413 -34.75)">
<path d="m727.6 95.11c8.906-4.58 14.43-18.06 14.43-19.08-1.356-1.356-7.121-3.052-12.72-4.408-4.408-5.764-9.686-8.595-11.7-12.88 0.0753-1.62 0.0276-3.047 0.5086-2.882 2.437 6.779 19.49 15.9 21.02 13.49-1.182-1.858-3.263-3.98-4.238-6.873-1.217-3.61-3.62-7.963-5.256-11.19 0.601-0.7987 0.8036-0.6932 1.865-0.6782 0.6106 2.639 9.218 21.24 12.38 19.16-0.2883-3.172-1.599-18.04-2.766-23.54-0.2654-1.253 2.157-0.2607 2.766-0.5307 0.0942 2.655 2.882 21.87 2.882 21.87l4.153-12.93 4.663 0.3807-5.086 10.51s-2.204 8.307-1.017 7.629c1.187-0.6782 3.391-2.034 3.391-2.034l0.6782 2.374c-4.318 0.7714-10.39 16.81-8.101 21.53-0.9419-0.6091-15.56-0.7632-17.85 0.08999z" fill-rule="evenodd" stroke="#000" stroke-width=".1789px" fill="#591f0f"/>
<g fill-rule="evenodd" stroke="#000" fill="#008500">
<path d="m712 46.19c7.15-1.201 13.55-10.8 15.26 2.034 1.652 12.44-6.103 21.87-19.84 22.38-13.73 0.5086-8.246 0.1302-8.307-8.307-0.08-11.19 5.914-14.94 12.88-16.11z" stroke-width=".1789px"/>
<path d="m758.1 42.96c3.896 2.357 13.51 22.07 0.7291 19.98s-12.82 4.532-21.04-6.476c-8.226-11.01-7.154-18.25 1.093-20.03 8.247-1.784 15.43 4.238 19.22 6.528z" stroke-width=".1789px"/>
<path d="m750.2 45.6c1.03 3.539-14.44 19.13-25.13 10.3-10.69-8.827-19.3-5.581-13.66-16.03 5.642-10.45 16.15-13.37 27.11-9.218 10.96 4.151 10.68 11.51 11.68 14.95z" stroke-width=".2045px"/>
</g>
<g transform="matrix(.1026 .03733 -.03733 .1026 705.4 60.56)">
<path d="m40 40c0 1.657-7.835 3-17.5 3-9.66 0-17.5-1.34-17.5-3s7.84-3 17.5-3 17.5 1.34 17.5 3z" fill-rule="evenodd" fill-opacity=".7686" transform="matrix(.8511 0 0 1 2.597 .2526)" filter="url(#r)"/>
<g>
<path style="color:#000000" d="m32.71 17.89c4.75-4.29 9.8-2.85 8.68 3.86-0.96 5.79-9.64 9.64-9.64 9.64v-3.857s5.319-1.989 5.786-3.857c0.96-3.85-2.9-3.85-4.83-1.92v-3.857z" fill="url(#f)"/>
<path style="color:#000000" d="m9.582 35.7c-2.903-0.45-2.903 3.41-0.975 5.34 3.857 1.929 24.61 2.628 26.04 0 1.3-2.398 1.929-3.857 0-5.786-2.156-2.156-23.12 0.8932-25.06 0.4466z" fill="url(#d)"/>
<path style="color:#000000" d="m8.607 10.18c8.794 2.545 17.46 2.214 26.04 0-2.126 9.74-1.987 16.83 0 27-9.203 3.543-17.69 2.24-26.04 0 0.6037-8.878 1.48-14.37 0-27z" fill="url(#e)"/>
</g>
<g fill-opacity=".8929">
<path d="m12.46 15c1.973-1.219 3.496-0.9382 4.821 0 0.5586 6.568 0.2886 12.93 0 19.29-1.607 1.22-3.214 1.585-4.821 0 0.4574-4.95 1.536-10.98 0-19.29z" fill="url(#h)"/>
<path fill="url(#g)" d="m8.969 13.64c0.7994 8.677 0.3611 13.92-0.1205 20.16 0.2411-0.1408 0.4821-0.2992 0.7232-0.4821 0.5378-6.198 0.9526-12.45 0-19.29-0.198-0.13-0.397-0.28-0.603-0.39z"/>
<path d="m20.18 15c0.96-0.96 2.89-0.96 4.82 0 0.4991 6.678 0.3624 14 0 20.25-1.607 1.271-3.214 1.327-4.821 0-0.2718-6.157-0.3743-13.45 0-20.25z" fill="url(#i)"/>
<path d="m27.89 15c1.435-0.5753 2.765-1.499 4.821 0-1.381 6.889-0.4686 13.01 0 19.29-1.524 0.9924-3.083 1.577-4.821 0-0.6379-6.429-1.071-12.86 0-19.29z" fill="url(#j)"/>
</g>
<g>
<path style="color:#000000" d="m9.744 19.62c-0.1726 0.203-3.065 0.203-3.065-1.726s-0.9643-0.9643-0.9643-4.821c-1.935-4.399 3.023-10.98 7.715-10.61 5.31 1.321 8.57-2.46 15.43 1.933 3.857 0.9643 5.786 0 6.75 2.893 0.9643 2.893 2.893 8.679 0 5.786-2.9-2.89-3.61-2.07-3.61-1.07 0 3.857-2.27 3.771-4.635 2.421s-6.222-4.243-7.186-0.3857c-0.9643 3.857-3.857 4.821-3.857 1.929 0-2.893-4.821-6.75-4.821-2.893s-2.71 4.091-1.756 6.547z" fill="url(#a)"/>
<path style="color:#000000" d="m8.635 9.426s-0.2979-0.8822 1.538-2.158 3.256 1.549 4.102 0.4164c0.8464-1.133 1.406-4.245 3.672-2.553l2.266 1.693s-6.416 5.641-11.58 2.602z" fill="url(#c)"/>
<path style="color:#000000" d="m23.24 5.979c1.88-2.048 2.43-0.616 2.76 0.021 0 0 2-2 3-1s1 2 1 2-3.853 2.295-6.758-1.021z" fill="url(#b)"/>
</g>
<g fill="#fff">
<g fill-opacity=".7054">
<path style="color:#000000" d="m9 41c-1.563-2.02-1.435-3.09-1-4 0.569 0.47 1.807 0.72 3.03 0.98-1.279 0.4-3.097 0.27-2.03 3.02z" filter="url(#q)"/>
<path style="color:#000000" d="m35.37 16.42c2.443-0.09852 4.096 0.9557 5.305 1.937 0 0-0.9263-4.042-5.305-1.937z" filter="url(#m)"/>
<path style="color:#000000" d="m12.8 15.41c0.6031 3.206 0.6626 5.597 0.8421 8.168 0.3395-3.093-0.5616-7.603 1.179-9.095-0.6737 0.09635-1.347 0.1743-2.021 0.9263z" filter="url(#p)"/>
<path style="color:#000000" d="m20.21 21.89 0.1684-6.568c0.8421-1.101 1.684-0.5859 2.526-0.6737-2.614 2.071-2.131 4.761-2.695 7.242z" filter="url(#o)"/>
<path style="color:#000000" d="m27.54 21.22-0.08421-5.305c0.948-1.203 1.525-0.5519 2.274-0.7579-1.673 1.078-1.802 3.7-2.189 6.063z" filter="url(#n)"/>
</g>
<path style="color:#000000" d="m6.063 11.45c-0.004-0.32 2.477-7.643 8.417-7.829 4.21 0.038 8.85-0.415 11.79 1.095-1.13-2.763-7.72-2.136-11.62-1.432-2.41-1.673-8.926 1.786-8.587 8.166z" filter="url(#l)"/>
<path style="color:#000000" d="m9.095 9.011c1.205-2.06 3.125-1.649 5.225-0.59 1.67-4.197 2.97-3.711 4.21-2.358-2.03-1.146-3.05 0.959-4.21 2.611-1.87-0.438-3.79-1.166-5.225 0.337z" filter="url(#k)"/>
</g>
</g>
<g transform="matrix(.1075 -.01895 .01895 .1075 707 51.6)">
<path d="m40 40c0 1.657-7.835 3-17.5 3-9.66 0-17.5-1.34-17.5-3s7.84-3 17.5-3 17.5 1.34 17.5 3z" fill-rule="evenodd" fill-opacity=".7686" transform="matrix(.8511 0 0 1 2.597 .2526)" filter="url(#r)"/>
<g>
<path style="color:#000000" d="m32.71 17.89c4.75-4.29 9.8-2.85 8.68 3.86-0.96 5.79-9.64 9.64-9.64 9.64v-3.857s5.319-1.989 5.786-3.857c0.96-3.85-2.9-3.85-4.83-1.92v-3.857z" fill="url(#f)"/>
<path style="color:#000000" d="m9.582 35.7c-2.903-0.45-2.903 3.41-0.975 5.34 3.857 1.929 24.61 2.628 26.04 0 1.3-2.398 1.929-3.857 0-5.786-2.156-2.156-23.12 0.8932-25.06 0.4466z" fill="url(#d)"/>
<path style="color:#000000" d="m8.607 10.18c8.794 2.545 17.46 2.214 26.04 0-2.126 9.74-1.987 16.83 0 27-9.203 3.543-17.69 2.24-26.04 0 0.6037-8.878 1.48-14.37 0-27z" fill="url(#e)"/>
</g>
<g fill-opacity=".8929">
<path d="m12.46 15c1.973-1.219 3.496-0.9382 4.821 0 0.5586 6.568 0.2886 12.93 0 19.29-1.607 1.22-3.214 1.585-4.821 0 0.4574-4.95 1.536-10.98 0-19.29z" fill="url(#h)"/>
<path d="m8.969 13.64c0.7994 8.677 0.3611 13.92-0.1205 20.16 0.2411-0.1408 0.4821-0.2992 0.7232-0.4821 0.5378-6.198 0.9526-12.45 0-19.29-0.198-0.13-0.397-0.28-0.603-0.39z" fill="url(#g)"/>
<path d="m20.18 15c0.96-0.96 2.89-0.96 4.82 0 0.4991 6.678 0.3624 14 0 20.25-1.607 1.271-3.214 1.327-4.821 0-0.2718-6.157-0.3743-13.45 0-20.25z" fill="url(#i)"/>
<path d="m27.89 15c1.435-0.5753 2.765-1.499 4.821 0-1.381 6.889-0.4686 13.01 0 19.29-1.524 0.9924-3.083 1.577-4.821 0-0.6379-6.429-1.071-12.86 0-19.29z" fill="url(#j)"/>
</g>
<g>
<path style="color:#000000" d="m9.744 19.62c-0.1726 0.203-3.065 0.203-3.065-1.726s-0.9643-0.9643-0.9643-4.821c-1.935-4.399 3.023-10.98 7.715-10.61 5.31 1.321 8.57-2.46 15.43 1.933 3.857 0.9643 5.786 0 6.75 2.893 0.9643 2.893 2.893 8.679 0 5.786-2.9-2.89-3.61-2.07-3.61-1.07 0 3.857-2.27 3.771-4.635 2.421s-6.222-4.243-7.186-0.3857c-0.9643 3.857-3.857 4.821-3.857 1.929 0-2.893-4.821-6.75-4.821-2.893s-2.71 4.091-1.756 6.547z" fill="url(#a)"/>
<path style="color:#000000" d="m8.635 9.426s-0.2979-0.8822 1.538-2.158 3.256 1.549 4.102 0.4164c0.8464-1.133 1.406-4.245 3.672-2.553l2.266 1.693s-6.416 5.641-11.58 2.602z" fill="url(#c)"/>
<path style="color:#000000" d="m23.24 5.979c1.88-2.048 2.43-0.616 2.76 0.021 0 0 2-2 3-1s1 2 1 2-3.853 2.295-6.758-1.021z" fill="url(#b)"/>
</g>
<g fill="#fff">
<g fill-opacity=".7054">
<path style="color:#000000" d="m9 41c-1.563-2.02-1.435-3.09-1-4 0.569 0.47 1.807 0.72 3.03 0.98-1.279 0.4-3.097 0.27-2.03 3.02z" filter="url(#q)"/>
<path style="color:#000000" d="m35.37 16.42c2.443-0.09852 4.096 0.9557 5.305 1.937 0 0-0.9263-4.042-5.305-1.937z" filter="url(#m)"/>
<path style="color:#000000" d="m12.8 15.41c0.6031 3.206 0.6626 5.597 0.8421 8.168 0.3395-3.093-0.5616-7.603 1.179-9.095-0.6737 0.09635-1.347 0.1743-2.021 0.9263z" filter="url(#p)"/>
<path style="color:#000000" d="m20.21 21.89 0.1684-6.568c0.8421-1.101 1.684-0.5859 2.526-0.6737-2.614 2.071-2.131 4.761-2.695 7.242z" filter="url(#o)"/>
<path style="color:#000000" d="m27.54 21.22-0.08421-5.305c0.948-1.203 1.525-0.5519 2.274-0.7579-1.673 1.078-1.802 3.7-2.189 6.063z" filter="url(#n)"/>
</g>
<path style="color:#000000" d="m6.063 11.45c-0.004-0.32 2.477-7.643 8.417-7.829 4.21 0.038 8.85-0.415 11.79 1.095-1.13-2.763-7.72-2.136-11.62-1.432-2.41-1.673-8.926 1.786-8.587 8.166z" filter="url(#l)"/>
<path style="color:#000000" d="m9.095 9.011c1.205-2.06 3.125-1.649 5.225-0.59 1.67-4.197 2.97-3.711 4.21-2.358-2.03-1.146-3.05 0.959-4.21 2.611-1.87-0.438-3.79-1.166-5.225 0.337z" filter="url(#k)"/>
</g>
</g>
<g transform="matrix(.05457 .09452 -.09452 .05457 720.4 56.29)">
<path d="m40 40c0 1.657-7.835 3-17.5 3-9.66 0-17.5-1.34-17.5-3s7.84-3 17.5-3 17.5 1.34 17.5 3z" fill-rule="evenodd" fill-opacity=".7686" transform="matrix(.8511 0 0 1 2.597 .2526)" filter="url(#r)"/>
<g>
<path style="color:#000000" d="m32.71 17.89c4.75-4.29 9.8-2.85 8.68 3.86-0.96 5.79-9.64 9.64-9.64 9.64v-3.857s5.319-1.989 5.786-3.857c0.96-3.85-2.9-3.85-4.83-1.92v-3.857z" fill="url(#f)"/>
<path style="color:#000000" d="m9.582 35.7c-2.903-0.45-2.903 3.41-0.975 5.34 3.857 1.929 24.61 2.628 26.04 0 1.3-2.398 1.929-3.857 0-5.786-2.156-2.156-23.12 0.8932-25.06 0.4466z" fill="url(#d)"/>
<path style="color:#000000" d="m8.607 10.18c8.794 2.545 17.46 2.214 26.04 0-2.126 9.74-1.987 16.83 0 27-9.203 3.543-17.69 2.24-26.04 0 0.6037-8.878 1.48-14.37 0-27z" fill="url(#e)"/>
</g>
<g fill-opacity=".8929">
<path d="m12.46 15c1.973-1.219 3.496-0.9382 4.821 0 0.5586 6.568 0.2886 12.93 0 19.29-1.607 1.22-3.214 1.585-4.821 0 0.4574-4.95 1.536-10.98 0-19.29z" fill="url(#h)"/>
<path fill="url(#g)" d="m8.969 13.64c0.7994 8.677 0.3611 13.92-0.1205 20.16 0.2411-0.1408 0.4821-0.2992 0.7232-0.4821 0.5378-6.198 0.9526-12.45 0-19.29-0.198-0.13-0.397-0.28-0.603-0.39z"/>
<path d="m20.18 15c0.96-0.96 2.89-0.96 4.82 0 0.4991 6.678 0.3624 14 0 20.25-1.607 1.271-3.214 1.327-4.821 0-0.2718-6.157-0.3743-13.45 0-20.25z" fill="url(#i)"/>
<path d="m27.89 15c1.435-0.5753 2.765-1.499 4.821 0-1.381 6.889-0.4686 13.01 0 19.29-1.524 0.9924-3.083 1.577-4.821 0-0.6379-6.429-1.071-12.86 0-19.29z" fill="url(#j)"/>
</g>
<g>
<path style="color:#000000" d="m9.744 19.62c-0.1726 0.203-3.065 0.203-3.065-1.726s-0.9643-0.9643-0.9643-4.821c-1.935-4.399 3.023-10.98 7.715-10.61 5.31 1.321 8.57-2.46 15.43 1.933 3.857 0.9643 5.786 0 6.75 2.893 0.9643 2.893 2.893 8.679 0 5.786-2.9-2.89-3.61-2.07-3.61-1.07 0 3.857-2.27 3.771-4.635 2.421s-6.222-4.243-7.186-0.3857c-0.9643 3.857-3.857 4.821-3.857 1.929 0-2.893-4.821-6.75-4.821-2.893s-2.71 4.091-1.756 6.547z" fill="url(#a)"/>
<path style="color:#000000" d="m8.635 9.426s-0.2979-0.8822 1.538-2.158 3.256 1.549 4.102 0.4164c0.8464-1.133 1.406-4.245 3.672-2.553l2.266 1.693s-6.416 5.641-11.58 2.602z" fill="url(#c)"/>
<path style="color:#000000" d="m23.24 5.979c1.88-2.048 2.43-0.616 2.76 0.021 0 0 2-2 3-1s1 2 1 2-3.853 2.295-6.758-1.021z" fill="url(#b)"/>
</g>
<g fill="#fff">
<g fill-opacity=".7054">
<path style="color:#000000" d="m9 41c-1.563-2.02-1.435-3.09-1-4 0.569 0.47 1.807 0.72 3.03 0.98-1.279 0.4-3.097 0.27-2.03 3.02z" filter="url(#q)"/>
<path style="color:#000000" d="m35.37 16.42c2.443-0.09852 4.096 0.9557 5.305 1.937 0 0-0.9263-4.042-5.305-1.937z" filter="url(#m)"/>
<path style="color:#000000" d="m12.8 15.41c0.6031 3.206 0.6626 5.597 0.8421 8.168 0.3395-3.093-0.5616-7.603 1.179-9.095-0.6737 0.09635-1.347 0.1743-2.021 0.9263z" filter="url(#p)"/>
<path style="color:#000000" d="m20.21 21.89 0.1684-6.568c0.8421-1.101 1.684-0.5859 2.526-0.6737-2.614 2.071-2.131 4.761-2.695 7.242z" filter="url(#o)"/>
<path style="color:#000000" d="m27.54 21.22-0.08421-5.305c0.948-1.203 1.525-0.5519 2.274-0.7579-1.673 1.078-1.802 3.7-2.189 6.063z" filter="url(#n)"/>
</g>
<path style="color:#000000" d="m6.063 11.45c-0.004-0.32 2.477-7.643 8.417-7.829 4.21 0.038 8.85-0.415 11.79 1.095-1.13-2.763-7.72-2.136-11.62-1.432-2.41-1.673-8.926 1.786-8.587 8.166z" filter="url(#l)"/>
<path style="color:#000000" d="m9.095 9.011c1.205-2.06 3.125-1.649 5.225-0.59 1.67-4.197 2.97-3.711 4.21-2.358-2.03-1.146-3.05 0.959-4.21 2.611-1.87-0.438-3.79-1.166-5.225 0.337z" filter="url(#k)"/>
</g>
</g>
<g transform="matrix(.1091 0 0 .1091 719.9 34.52)">
<path d="m40 40c0 1.657-7.835 3-17.5 3-9.66 0-17.5-1.34-17.5-3s7.84-3 17.5-3 17.5 1.34 17.5 3z" fill-rule="evenodd" fill-opacity=".7686" transform="matrix(.8511 0 0 1 2.597 .2526)" filter="url(#r)"/>
<g>
<path style="color:#000000" d="m32.71 17.89c4.75-4.29 9.8-2.85 8.68 3.86-0.96 5.79-9.64 9.64-9.64 9.64v-3.857s5.319-1.989 5.786-3.857c0.96-3.85-2.9-3.85-4.83-1.92v-3.857z" fill="url(#f)"/>
<path style="color:#000000" d="m9.582 35.7c-2.903-0.45-2.903 3.41-0.975 5.34 3.857 1.929 24.61 2.628 26.04 0 1.3-2.398 1.929-3.857 0-5.786-2.156-2.156-23.12 0.8932-25.06 0.4466z" fill="url(#d)"/>
<path style="color:#000000" d="m8.607 10.18c8.794 2.545 17.46 2.214 26.04 0-2.126 9.74-1.987 16.83 0 27-9.203 3.543-17.69 2.24-26.04 0 0.6037-8.878 1.48-14.37 0-27z" fill="url(#e)"/>
</g>
<g fill-opacity=".8929">
<path d="m12.46 15c1.973-1.219 3.496-0.9382 4.821 0 0.5586 6.568 0.2886 12.93 0 19.29-1.607 1.22-3.214 1.585-4.821 0 0.4574-4.95 1.536-10.98 0-19.29z" fill="url(#h)"/>
<path d="m8.969 13.64c0.7994 8.677 0.3611 13.92-0.1205 20.16 0.2411-0.1408 0.4821-0.2992 0.7232-0.4821 0.5378-6.198 0.9526-12.45 0-19.29-0.198-0.13-0.397-0.28-0.603-0.39z" fill="url(#g)"/>
<path d="m20.18 15c0.96-0.96 2.89-0.96 4.82 0 0.4991 6.678 0.3624 14 0 20.25-1.607 1.271-3.214 1.327-4.821 0-0.2718-6.157-0.3743-13.45 0-20.25z" fill="url(#i)"/>
<path d="m27.89 15c1.435-0.5753 2.765-1.499 4.821 0-1.381 6.889-0.4686 13.01 0 19.29-1.524 0.9924-3.083 1.577-4.821 0-0.6379-6.429-1.071-12.86 0-19.29z" fill="url(#j)"/>
</g>
<g>
<path style="color:#000000" d="m9.744 19.62c-0.1726 0.203-3.065 0.203-3.065-1.726s-0.9643-0.9643-0.9643-4.821c-1.935-4.399 3.023-10.98 7.715-10.61 5.31 1.321 8.57-2.46 15.43 1.933 3.857 0.9643 5.786 0 6.75 2.893 0.9643 2.893 2.893 8.679 0 5.786-2.9-2.89-3.61-2.07-3.61-1.07 0 3.857-2.27 3.771-4.635 2.421s-6.222-4.243-7.186-0.3857c-0.9643 3.857-3.857 4.821-3.857 1.929 0-2.893-4.821-6.75-4.821-2.893s-2.71 4.091-1.756 6.547z" fill="url(#a)"/>
<path style="color:#000000" d="m8.635 9.426s-0.2979-0.8822 1.538-2.158 3.256 1.549 4.102 0.4164c0.8464-1.133 1.406-4.245 3.672-2.553l2.266 1.693s-6.416 5.641-11.58 2.602z" fill="url(#c)"/>
<path style="color:#000000" d="m23.24 5.979c1.88-2.048 2.43-0.616 2.76 0.021 0 0 2-2 3-1s1 2 1 2-3.853 2.295-6.758-1.021z" fill="url(#b)"/>
</g>
<g fill="#fff">
<g fill-opacity=".7054">
<path style="color:#000000" d="m9 41c-1.563-2.02-1.435-3.09-1-4 0.569 0.47 1.807 0.72 3.03 0.98-1.279 0.4-3.097 0.27-2.03 3.02z" filter="url(#q)"/>
<path style="color:#000000" d="m35.37 16.42c2.443-0.09852 4.096 0.9557 5.305 1.937 0 0-0.9263-4.042-5.305-1.937z" filter="url(#m)"/>
<path style="color:#000000" d="m12.8 15.41c0.6031 3.206 0.6626 5.597 0.8421 8.168 0.3395-3.093-0.5616-7.603 1.179-9.095-0.6737 0.09635-1.347 0.1743-2.021 0.9263z" filter="url(#p)"/>
<path style="color:#000000" d="m20.21 21.89 0.1684-6.568c0.8421-1.101 1.684-0.5859 2.526-0.6737-2.614 2.071-2.131 4.761-2.695 7.242z" filter="url(#o)"/>
<path style="color:#000000" d="m27.54 21.22-0.08421-5.305c0.948-1.203 1.525-0.5519 2.274-0.7579-1.673 1.078-1.802 3.7-2.189 6.063z" filter="url(#n)"/>
</g>
<path style="color:#000000" d="m6.063 11.45c-0.004-0.32 2.477-7.643 8.417-7.829 4.21 0.038 8.85-0.415 11.79 1.095-1.13-2.763-7.72-2.136-11.62-1.432-2.41-1.673-8.926 1.786-8.587 8.166z" filter="url(#l)"/>
<path style="color:#000000" d="m9.095 9.011c1.205-2.06 3.125-1.649 5.225-0.59 1.67-4.197 2.97-3.711 4.21-2.358-2.03-1.146-3.05 0.959-4.21 2.611-1.87-0.438-3.79-1.166-5.225 0.337z" filter="url(#k)"/>
</g>
</g>
<g transform="matrix(.05457 -.09452 .09452 .05457 721.9 47.58)">
<path d="m40 40c0 1.657-7.835 3-17.5 3-9.66 0-17.5-1.34-17.5-3s7.84-3 17.5-3 17.5 1.34 17.5 3z" fill-rule="evenodd" fill-opacity=".7686" transform="matrix(.8511 0 0 1 2.597 .2526)" filter="url(#r)"/>
<g>
<path style="color:#000000" d="m32.71 17.89c4.75-4.29 9.8-2.85 8.68 3.86-0.96 5.79-9.64 9.64-9.64 9.64v-3.857s5.319-1.989 5.786-3.857c0.96-3.85-2.9-3.85-4.83-1.92v-3.857z" fill="url(#f)"/>
<path style="color:#000000" d="m9.582 35.7c-2.903-0.45-2.903 3.41-0.975 5.34 3.857 1.929 24.61 2.628 26.04 0 1.3-2.398 1.929-3.857 0-5.786-2.156-2.156-23.12 0.8932-25.06 0.4466z" fill="url(#d)"/>
<path style="color:#000000" d="m8.607 10.18c8.794 2.545 17.46 2.214 26.04 0-2.126 9.74-1.987 16.83 0 27-9.203 3.543-17.69 2.24-26.04 0 0.6037-8.878 1.48-14.37 0-27z" fill="url(#e)"/>
</g>
<g fill-opacity=".8929">
<path d="m12.46 15c1.973-1.219 3.496-0.9382 4.821 0 0.5586 6.568 0.2886 12.93 0 19.29-1.607 1.22-3.214 1.585-4.821 0 0.4574-4.95 1.536-10.98 0-19.29z" fill="url(#h)"/>
<path fill="url(#g)" d="m8.969 13.64c0.7994 8.677 0.3611 13.92-0.1205 20.16 0.2411-0.1408 0.4821-0.2992 0.7232-0.4821 0.5378-6.198 0.9526-12.45 0-19.29-0.198-0.13-0.397-0.28-0.603-0.39z"/>
<path d="m20.18 15c0.96-0.96 2.89-0.96 4.82 0 0.4991 6.678 0.3624 14 0 20.25-1.607 1.271-3.214 1.327-4.821 0-0.2718-6.157-0.3743-13.45 0-20.25z" fill="url(#i)"/>
<path d="m27.89 15c1.435-0.5753 2.765-1.499 4.821 0-1.381 6.889-0.4686 13.01 0 19.29-1.524 0.9924-3.083 1.577-4.821 0-0.6379-6.429-1.071-12.86 0-19.29z" fill="url(#j)"/>
</g>
<g>
<path style="color:#000000" d="m9.744 19.62c-0.1726 0.203-3.065 0.203-3.065-1.726s-0.9643-0.9643-0.9643-4.821c-1.935-4.399 3.023-10.98 7.715-10.61 5.31 1.321 8.57-2.46 15.43 1.933 3.857 0.9643 5.786 0 6.75 2.893 0.9643 2.893 2.893 8.679 0 5.786-2.9-2.89-3.61-2.07-3.61-1.07 0 3.857-2.27 3.771-4.635 2.421s-6.222-4.243-7.186-0.3857c-0.9643 3.857-3.857 4.821-3.857 1.929 0-2.893-4.821-6.75-4.821-2.893s-2.71 4.091-1.756 6.547z" fill="url(#a)"/>
<path style="color:#000000" d="m8.635 9.426s-0.2979-0.8822 1.538-2.158 3.256 1.549 4.102 0.4164c0.8464-1.133 1.406-4.245 3.672-2.553l2.266 1.693s-6.416 5.641-11.58 2.602z" fill="url(#c)"/>
<path style="color:#000000" d="m23.24 5.979c1.88-2.048 2.43-0.616 2.76 0.021 0 0 2-2 3-1s1 2 1 2-3.853 2.295-6.758-1.021z" fill="url(#b)"/>
</g>
<g fill="#fff">
<g fill-opacity=".7054">
<path style="color:#000000" d="m9 41c-1.563-2.02-1.435-3.09-1-4 0.569 0.47 1.807 0.72 3.03 0.98-1.279 0.4-3.097 0.27-2.03 3.02z" filter="url(#q)"/>
<path style="color:#000000" d="m35.37 16.42c2.443-0.09852 4.096 0.9557 5.305 1.937 0 0-0.9263-4.042-5.305-1.937z" filter="url(#m)"/>
<path style="color:#000000" d="m12.8 15.41c0.6031 3.206 0.6626 5.597 0.8421 8.168 0.3395-3.093-0.5616-7.603 1.179-9.095-0.6737 0.09635-1.347 0.1743-2.021 0.9263z" filter="url(#p)"/>
<path style="color:#000000" d="m20.21 21.89 0.1684-6.568c0.8421-1.101 1.684-0.5859 2.526-0.6737-2.614 2.071-2.131 4.761-2.695 7.242z" filter="url(#o)"/>
<path style="color:#000000" d="m27.54 21.22-0.08421-5.305c0.948-1.203 1.525-0.5519 2.274-0.7579-1.673 1.078-1.802 3.7-2.189 6.063z" filter="url(#n)"/>
</g>
<path style="color:#000000" d="m6.063 11.45c-0.004-0.32 2.477-7.643 8.417-7.829 4.21 0.038 8.85-0.415 11.79 1.095-1.13-2.763-7.72-2.136-11.62-1.432-2.41-1.673-8.926 1.786-8.587 8.166z" filter="url(#l)"/>
<path style="color:#000000" d="m9.095 9.011c1.205-2.06 3.125-1.649 5.225-0.59 1.67-4.197 2.97-3.711 4.21-2.358-2.03-1.146-3.05 0.959-4.21 2.611-1.87-0.438-3.79-1.166-5.225 0.337z" filter="url(#k)"/>
</g>
</g>
<g transform="matrix(.09892 -.04612 .04612 .09892 732.7 35.17)">
<path d="m40 40c0 1.657-7.835 3-17.5 3-9.66 0-17.5-1.34-17.5-3s7.84-3 17.5-3 17.5 1.34 17.5 3z" fill-rule="evenodd" fill-opacity=".7686" transform="matrix(.8511 0 0 1 2.597 .2526)" filter="url(#r)"/>
<g>
<path style="color:#000000" d="m32.71 17.89c4.75-4.29 9.8-2.85 8.68 3.86-0.96 5.79-9.64 9.64-9.64 9.64v-3.857s5.319-1.989 5.786-3.857c0.96-3.85-2.9-3.85-4.83-1.92v-3.857z" fill="url(#f)"/>
<path style="color:#000000" d="m9.582 35.7c-2.903-0.45-2.903 3.41-0.975 5.34 3.857 1.929 24.61 2.628 26.04 0 1.3-2.398 1.929-3.857 0-5.786-2.156-2.156-23.12 0.8932-25.06 0.4466z" fill="url(#d)"/>
<path style="color:#000000" d="m8.607 10.18c8.794 2.545 17.46 2.214 26.04 0-2.126 9.74-1.987 16.83 0 27-9.203 3.543-17.69 2.24-26.04 0 0.6037-8.878 1.48-14.37 0-27z" fill="url(#e)"/>
</g>
<g fill-opacity=".8929">
<path d="m12.46 15c1.973-1.219 3.496-0.9382 4.821 0 0.5586 6.568 0.2886 12.93 0 19.29-1.607 1.22-3.214 1.585-4.821 0 0.4574-4.95 1.536-10.98 0-19.29z" fill="url(#h)"/>
<path d="m8.969 13.64c0.7994 8.677 0.3611 13.92-0.1205 20.16 0.2411-0.1408 0.4821-0.2992 0.7232-0.4821 0.5378-6.198 0.9526-12.45 0-19.29-0.198-0.13-0.397-0.28-0.603-0.39z" fill="url(#g)"/>
<path d="m20.18 15c0.96-0.96 2.89-0.96 4.82 0 0.4991 6.678 0.3624 14 0 20.25-1.607 1.271-3.214 1.327-4.821 0-0.2718-6.157-0.3743-13.45 0-20.25z" fill="url(#i)"/>
<path d="m27.89 15c1.435-0.5753 2.765-1.499 4.821 0-1.381 6.889-0.4686 13.01 0 19.29-1.524 0.9924-3.083 1.577-4.821 0-0.6379-6.429-1.071-12.86 0-19.29z" fill="url(#j)"/>
</g>
<g>
<path style="color:#000000" d="m9.744 19.62c-0.1726 0.203-3.065 0.203-3.065-1.726s-0.9643-0.9643-0.9643-4.821c-1.935-4.399 3.023-10.98 7.715-10.61 5.31 1.321 8.57-2.46 15.43 1.933 3.857 0.9643 5.786 0 6.75 2.893 0.9643 2.893 2.893 8.679 0 5.786-2.9-2.89-3.61-2.07-3.61-1.07 0 3.857-2.27 3.771-4.635 2.421s-6.222-4.243-7.186-0.3857c-0.9643 3.857-3.857 4.821-3.857 1.929 0-2.893-4.821-6.75-4.821-2.893s-2.71 4.091-1.756 6.547z" fill="url(#a)"/>
<path style="color:#000000" d="m8.635 9.426s-0.2979-0.8822 1.538-2.158 3.256 1.549 4.102 0.4164c0.8464-1.133 1.406-4.245 3.672-2.553l2.266 1.693s-6.416 5.641-11.58 2.602z" fill="url(#c)"/>
<path style="color:#000000" d="m23.24 5.979c1.88-2.048 2.43-0.616 2.76 0.021 0 0 2-2 3-1s1 2 1 2-3.853 2.295-6.758-1.021z" fill="url(#b)"/>
</g>
<g fill="#fff">
<g fill-opacity=".7054">
<path style="color:#000000" d="m9 41c-1.563-2.02-1.435-3.09-1-4 0.569 0.47 1.807 0.72 3.03 0.98-1.279 0.4-3.097 0.27-2.03 3.02z" filter="url(#q)"/>
<path style="color:#000000" d="m35.37 16.42c2.443-0.09852 4.096 0.9557 5.305 1.937 0 0-0.9263-4.042-5.305-1.937z" filter="url(#m)"/>
<path style="color:#000000" d="m12.8 15.41c0.6031 3.206 0.6626 5.597 0.8421 8.168 0.3395-3.093-0.5616-7.603 1.179-9.095-0.6737 0.09635-1.347 0.1743-2.021 0.9263z" filter="url(#p)"/>
<path style="color:#000000" d="m20.21 21.89 0.1684-6.568c0.8421-1.101 1.684-0.5859 2.526-0.6737-2.614 2.071-2.131 4.761-2.695 7.242z" filter="url(#o)"/>
<path style="color:#000000" d="m27.54 21.22-0.08421-5.305c0.948-1.203 1.525-0.5519 2.274-0.7579-1.673 1.078-1.802 3.7-2.189 6.063z" filter="url(#n)"/>
</g>
<path style="color:#000000" d="m6.063 11.45c-0.004-0.32 2.477-7.643 8.417-7.829 4.21 0.038 8.85-0.415 11.79 1.095-1.13-2.763-7.72-2.136-11.62-1.432-2.41-1.673-8.926 1.786-8.587 8.166z" filter="url(#l)"/>
<path style="color:#000000" d="m9.095 9.011c1.205-2.06 3.125-1.649 5.225-0.59 1.67-4.197 2.97-3.711 4.21-2.358-2.03-1.146-3.05 0.959-4.21 2.611-1.87-0.438-3.79-1.166-5.225 0.337z" filter="url(#k)"/>
</g>
</g>
<g transform="matrix(.09452 .05457 -.05457 .09452 755.5 44.3)">
<path d="m40 40c0 1.657-7.835 3-17.5 3-9.66 0-17.5-1.34-17.5-3s7.84-3 17.5-3 17.5 1.34 17.5 3z" fill-rule="evenodd" fill-opacity=".7686" transform="matrix(.8511 0 0 1 2.597 .2526)" filter="url(#r)"/>
<g>
<path style="color:#000000" d="m32.71 17.89c4.75-4.29 9.8-2.85 8.68 3.86-0.96 5.79-9.64 9.64-9.64 9.64v-3.857s5.319-1.989 5.786-3.857c0.96-3.85-2.9-3.85-4.83-1.92v-3.857z" fill="url(#f)"/>
<path style="color:#000000" d="m9.582 35.7c-2.903-0.45-2.903 3.41-0.975 5.34 3.857 1.929 24.61 2.628 26.04 0 1.3-2.398 1.929-3.857 0-5.786-2.156-2.156-23.12 0.8932-25.06 0.4466z" fill="url(#d)"/>
<path style="color:#000000" d="m8.607 10.18c8.794 2.545 17.46 2.214 26.04 0-2.126 9.74-1.987 16.83 0 27-9.203 3.543-17.69 2.24-26.04 0 0.6037-8.878 1.48-14.37 0-27z" fill="url(#e)"/>
</g>
<g fill-opacity=".8929">
<path d="m12.46 15c1.973-1.219 3.496-0.9382 4.821 0 0.5586 6.568 0.2886 12.93 0 19.29-1.607 1.22-3.214 1.585-4.821 0 0.4574-4.95 1.536-10.98 0-19.29z" fill="url(#h)"/>
<path fill="url(#g)" d="m8.969 13.64c0.7994 8.677 0.3611 13.92-0.1205 20.16 0.2411-0.1408 0.4821-0.2992 0.7232-0.4821 0.5378-6.198 0.9526-12.45 0-19.29-0.198-0.13-0.397-0.28-0.603-0.39z"/>
<path d="m20.18 15c0.96-0.96 2.89-0.96 4.82 0 0.4991 6.678 0.3624 14 0 20.25-1.607 1.271-3.214 1.327-4.821 0-0.2718-6.157-0.3743-13.45 0-20.25z" fill="url(#i)"/>
<path d="m27.89 15c1.435-0.5753 2.765-1.499 4.821 0-1.381 6.889-0.4686 13.01 0 19.29-1.524 0.9924-3.083 1.577-4.821 0-0.6379-6.429-1.071-12.86 0-19.29z" fill="url(#j)"/>
</g>
<g>
<path style="color:#000000" d="m9.744 19.62c-0.1726 0.203-3.065 0.203-3.065-1.726s-0.9643-0.9643-0.9643-4.821c-1.935-4.399 3.023-10.98 7.715-10.61 5.31 1.321 8.57-2.46 15.43 1.933 3.857 0.9643 5.786 0 6.75 2.893 0.9643 2.893 2.893 8.679 0 5.786-2.9-2.89-3.61-2.07-3.61-1.07 0 3.857-2.27 3.771-4.635 2.421s-6.222-4.243-7.186-0.3857c-0.9643 3.857-3.857 4.821-3.857 1.929 0-2.893-4.821-6.75-4.821-2.893s-2.71 4.091-1.756 6.547z" fill="url(#a)"/>
<path style="color:#000000" d="m8.635 9.426s-0.2979-0.8822 1.538-2.158 3.256 1.549 4.102 0.4164c0.8464-1.133 1.406-4.245 3.672-2.553l2.266 1.693s-6.416 5.641-11.58 2.602z" fill="url(#c)"/>
<path style="color:#000000" d="m23.24 5.979c1.88-2.048 2.43-0.616 2.76 0.021 0 0 2-2 3-1s1 2 1 2-3.853 2.295-6.758-1.021z" fill="url(#b)"/>
</g>
<g fill="#fff">
<g fill-opacity=".7054">
<path style="color:#000000" d="m9 41c-1.563-2.02-1.435-3.09-1-4 0.569 0.47 1.807 0.72 3.03 0.98-1.279 0.4-3.097 0.27-2.03 3.02z" filter="url(#q)"/>
<path style="color:#000000" d="m35.37 16.42c2.443-0.09852 4.096 0.9557 5.305 1.937 0 0-0.9263-4.042-5.305-1.937z" filter="url(#m)"/>
<path style="color:#000000" d="m12.8 15.41c0.6031 3.206 0.6626 5.597 0.8421 8.168 0.3395-3.093-0.5616-7.603 1.179-9.095-0.6737 0.09635-1.347 0.1743-2.021 0.9263z" filter="url(#p)"/>
<path style="color:#000000" d="m20.21 21.89 0.1684-6.568c0.8421-1.101 1.684-0.5859 2.526-0.6737-2.614 2.071-2.131 4.761-2.695 7.242z" filter="url(#o)"/>
<path style="color:#000000" d="m27.54 21.22-0.08421-5.305c0.948-1.203 1.525-0.5519 2.274-0.7579-1.673 1.078-1.802 3.7-2.189 6.063z" filter="url(#n)"/>
</g>
<path style="color:#000000" d="m6.063 11.45c-0.004-0.32 2.477-7.643 8.417-7.829 4.21 0.038 8.85-0.415 11.79 1.095-1.13-2.763-7.72-2.136-11.62-1.432-2.41-1.673-8.926 1.786-8.587 8.166z" filter="url(#l)"/>
<path style="color:#000000" d="m9.095 9.011c1.205-2.06 3.125-1.649 5.225-0.59 1.67-4.197 2.97-3.711 4.21-2.358-2.03-1.146-3.05 0.959-4.21 2.611-1.87-0.438-3.79-1.166-5.225 0.337z" filter="url(#k)"/>
</g>
</g>
<g transform="matrix(.04612 -.09892 .09892 .04612 757.9 58.31)">
<path d="m40 40c0 1.657-7.835 3-17.5 3-9.66 0-17.5-1.34-17.5-3s7.84-3 17.5-3 17.5 1.34 17.5 3z" fill-rule="evenodd" fill-opacity=".7686" transform="matrix(.8511 0 0 1 2.597 .2526)" filter="url(#r)"/>
<g>
<path style="color:#000000" d="m32.71 17.89c4.75-4.29 9.8-2.85 8.68 3.86-0.96 5.79-9.64 9.64-9.64 9.64v-3.857s5.319-1.989 5.786-3.857c0.96-3.85-2.9-3.85-4.83-1.92v-3.857z" fill="url(#f)"/>
<path style="color:#000000" d="m9.582 35.7c-2.903-0.45-2.903 3.41-0.975 5.34 3.857 1.929 24.61 2.628 26.04 0 1.3-2.398 1.929-3.857 0-5.786-2.156-2.156-23.12 0.8932-25.06 0.4466z" fill="url(#d)"/>
<path style="color:#000000" d="m8.607 10.18c8.794 2.545 17.46 2.214 26.04 0-2.126 9.74-1.987 16.83 0 27-9.203 3.543-17.69 2.24-26.04 0 0.6037-8.878 1.48-14.37 0-27z" fill="url(#e)"/>
</g>
<g fill-opacity=".8929">
<path d="m12.46 15c1.973-1.219 3.496-0.9382 4.821 0 0.5586 6.568 0.2886 12.93 0 19.29-1.607 1.22-3.214 1.585-4.821 0 0.4574-4.95 1.536-10.98 0-19.29z" fill="url(#h)"/>
<path d="m8.969 13.64c0.7994 8.677 0.3611 13.92-0.1205 20.16 0.2411-0.1408 0.4821-0.2992 0.7232-0.4821 0.5378-6.198 0.9526-12.45 0-19.29-0.198-0.13-0.397-0.28-0.603-0.39z" fill="url(#g)"/>
<path d="m20.18 15c0.96-0.96 2.89-0.96 4.82 0 0.4991 6.678 0.3624 14 0 20.25-1.607 1.271-3.214 1.327-4.821 0-0.2718-6.157-0.3743-13.45 0-20.25z" fill="url(#i)"/>
<path d="m27.89 15c1.435-0.5753 2.765-1.499 4.821 0-1.381 6.889-0.4686 13.01 0 19.29-1.524 0.9924-3.083 1.577-4.821 0-0.6379-6.429-1.071-12.86 0-19.29z" fill="url(#j)"/>
</g>
<g>
<path style="color:#000000" d="m9.744 19.62c-0.1726 0.203-3.065 0.203-3.065-1.726s-0.9643-0.9643-0.9643-4.821c-1.935-4.399 3.023-10.98 7.715-10.61 5.31 1.321 8.57-2.46 15.43 1.933 3.857 0.9643 5.786 0 6.75 2.893 0.9643 2.893 2.893 8.679 0 5.786-2.9-2.89-3.61-2.07-3.61-1.07 0 3.857-2.27 3.771-4.635 2.421s-6.222-4.243-7.186-0.3857c-0.9643 3.857-3.857 4.821-3.857 1.929 0-2.893-4.821-6.75-4.821-2.893s-2.71 4.091-1.756 6.547z" fill="url(#a)"/>
<path style="color:#000000" d="m8.635 9.426s-0.2979-0.8822 1.538-2.158 3.256 1.549 4.102 0.4164c0.8464-1.133 1.406-4.245 3.672-2.553l2.266 1.693s-6.416 5.641-11.58 2.602z" fill="url(#c)"/>
<path style="color:#000000" d="m23.24 5.979c1.88-2.048 2.43-0.616 2.76 0.021 0 0 2-2 3-1s1 2 1 2-3.853 2.295-6.758-1.021z" fill="url(#b)"/>
</g>
<g fill="#fff">
<g fill-opacity=".7054">
<path style="color:#000000" d="m9 41c-1.563-2.02-1.435-3.09-1-4 0.569 0.47 1.807 0.72 3.03 0.98-1.279 0.4-3.097 0.27-2.03 3.02z" filter="url(#q)"/>
<path style="color:#000000" d="m35.37 16.42c2.443-0.09852 4.096 0.9557 5.305 1.937 0 0-0.9263-4.042-5.305-1.937z" filter="url(#m)"/>
<path style="color:#000000" d="m12.8 15.41c0.6031 3.206 0.6626 5.597 0.8421 8.168 0.3395-3.093-0.5616-7.603 1.179-9.095-0.6737 0.09635-1.347 0.1743-2.021 0.9263z" filter="url(#p)"/>
<path style="color:#000000" d="m20.21 21.89 0.1684-6.568c0.8421-1.101 1.684-0.5859 2.526-0.6737-2.614 2.071-2.131 4.761-2.695 7.242z" filter="url(#o)"/>
<path style="color:#000000" d="m27.54 21.22-0.08421-5.305c0.948-1.203 1.525-0.5519 2.274-0.7579-1.673 1.078-1.802 3.7-2.189 6.063z" filter="url(#n)"/>
</g>
<path style="color:#000000" d="m6.063 11.45c-0.004-0.32 2.477-7.643 8.417-7.829 4.21 0.038 8.85-0.415 11.79 1.095-1.13-2.763-7.72-2.136-11.62-1.432-2.41-1.673-8.926 1.786-8.587 8.166z" filter="url(#l)"/>
<path style="color:#000000" d="m9.095 9.011c1.205-2.06 3.125-1.649 5.225-0.59 1.67-4.197 2.97-3.711 4.21-2.358-2.03-1.146-3.05 0.959-4.21 2.611-1.87-0.438-3.79-1.166-5.225 0.337z" filter="url(#k)"/>
</g>
</g>
<g transform="matrix(.07717 .07717 -.07717 .07717 737.7 42.89)">
<path d="m40 40c0 1.657-7.835 3-17.5 3-9.66 0-17.5-1.34-17.5-3s7.84-3 17.5-3 17.5 1.34 17.5 3z" fill-rule="evenodd" fill-opacity=".7686" transform="matrix(.8511 0 0 1 2.597 .2526)" filter="url(#r)"/>
<g>
<path style="color:#000000" d="m32.71 17.89c4.75-4.29 9.8-2.85 8.68 3.86-0.96 5.79-9.64 9.64-9.64 9.64v-3.857s5.319-1.989 5.786-3.857c0.96-3.85-2.9-3.85-4.83-1.92v-3.857z" fill="url(#f)"/>
<path style="color:#000000" d="m9.582 35.7c-2.903-0.45-2.903 3.41-0.975 5.34 3.857 1.929 24.61 2.628 26.04 0 1.3-2.398 1.929-3.857 0-5.786-2.156-2.156-23.12 0.8932-25.06 0.4466z" fill="url(#d)"/>
<path style="color:#000000" d="m8.607 10.18c8.794 2.545 17.46 2.214 26.04 0-2.126 9.74-1.987 16.83 0 27-9.203 3.543-17.69 2.24-26.04 0 0.6037-8.878 1.48-14.37 0-27z" fill="url(#e)"/>
</g>
<g fill-opacity=".8929">
<path d="m12.46 15c1.973-1.219 3.496-0.9382 4.821 0 0.5586 6.568 0.2886 12.93 0 19.29-1.607 1.22-3.214 1.585-4.821 0 0.4574-4.95 1.536-10.98 0-19.29z" fill="url(#h)"/>
<path d="m8.969 13.64c0.7994 8.677 0.3611 13.92-0.1205 20.16 0.2411-0.1408 0.4821-0.2992 0.7232-0.4821 0.5378-6.198 0.9526-12.45 0-19.29-0.198-0.13-0.397-0.28-0.603-0.39z" fill="url(#g)"/>
<path d="m20.18 15c0.96-0.96 2.89-0.96 4.82 0 0.4991 6.678 0.3624 14 0 20.25-1.607 1.271-3.214 1.327-4.821 0-0.2718-6.157-0.3743-13.45 0-20.25z" fill="url(#i)"/>
<path d="m27.89 15c1.435-0.5753 2.765-1.499 4.821 0-1.381 6.889-0.4686 13.01 0 19.29-1.524 0.9924-3.083 1.577-4.821 0-0.6379-6.429-1.071-12.86 0-19.29z" fill="url(#j)"/>
</g>
<g>
<path style="color:#000000" d="m9.744 19.62c-0.1726 0.203-3.065 0.203-3.065-1.726s-0.9643-0.9643-0.9643-4.821c-1.935-4.399 3.023-10.98 7.715-10.61 5.31 1.321 8.57-2.46 15.43 1.933 3.857 0.9643 5.786 0 6.75 2.893 0.9643 2.893 2.893 8.679 0 5.786-2.9-2.89-3.61-2.07-3.61-1.07 0 3.857-2.27 3.771-4.635 2.421s-6.222-4.243-7.186-0.3857c-0.9643 3.857-3.857 4.821-3.857 1.929 0-2.893-4.821-6.75-4.821-2.893s-2.71 4.091-1.756 6.547z" fill="url(#a)"/>
<path style="color:#000000" d="m8.635 9.426s-0.2979-0.8822 1.538-2.158 3.256 1.549 4.102 0.4164c0.8464-1.133 1.406-4.245 3.672-2.553l2.266 1.693s-6.416 5.641-11.58 2.602z" fill="url(#c)"/>
<path style="color:#000000" d="m23.24 5.979c1.88-2.048 2.43-0.616 2.76 0.021 0 0 2-2 3-1s1 2 1 2-3.853 2.295-6.758-1.021z" fill="url(#b)"/>
</g>
<g fill="#fff">
<g fill-opacity=".7054">
<path style="color:#000000" d="m9 41c-1.563-2.02-1.435-3.09-1-4 0.569 0.47 1.807 0.72 3.03 0.98-1.279 0.4-3.097 0.27-2.03 3.02z" filter="url(#q)"/>
<path style="color:#000000" d="m35.37 16.42c2.443-0.09852 4.096 0.9557 5.305 1.937 0 0-0.9263-4.042-5.305-1.937z" filter="url(#m)"/>
<path style="color:#000000" d="m12.8 15.41c0.6031 3.206 0.6626 5.597 0.8421 8.168 0.3395-3.093-0.5616-7.603 1.179-9.095-0.6737 0.09635-1.347 0.1743-2.021 0.9263z" filter="url(#p)"/>
<path style="color:#000000" d="m20.21 21.89 0.1684-6.568c0.8421-1.101 1.684-0.5859 2.526-0.6737-2.614 2.071-2.131 4.761-2.695 7.242z" filter="url(#o)"/>
<path style="color:#000000" d="m27.54 21.22-0.08421-5.305c0.948-1.203 1.525-0.5519 2.274-0.7579-1.673 1.078-1.802 3.7-2.189 6.063z" filter="url(#n)"/>
</g>
<path style="color:#000000" d="m6.063 11.45c-0.004-0.32 2.477-7.643 8.417-7.829 4.21 0.038 8.85-0.415 11.79 1.095-1.13-2.763-7.72-2.136-11.62-1.432-2.41-1.673-8.926 1.786-8.587 8.166z" filter="url(#l)"/>
<path style="color:#000000" d="m9.095 9.011c1.205-2.06 3.125-1.649 5.225-0.59 1.67-4.197 2.97-3.711 4.21-2.358-2.03-1.146-3.05 0.959-4.21 2.611-1.87-0.438-3.79-1.166-5.225 0.337z" filter="url(#k)"/>
</g>
</g>
<g transform="matrix(.09452 -.05457 .05457 .09452 745.5 55.63)">
<path d="m40 40c0 1.657-7.835 3-17.5 3-9.66 0-17.5-1.34-17.5-3s7.84-3 17.5-3 17.5 1.34 17.5 3z" fill-rule="evenodd" fill-opacity=".7686" transform="matrix(.8511 0 0 1 2.597 .2526)" filter="url(#r)"/>
<g>
<path style="color:#000000" d="m32.71 17.89c4.75-4.29 9.8-2.85 8.68 3.86-0.96 5.79-9.64 9.64-9.64 9.64v-3.857s5.319-1.989 5.786-3.857c0.96-3.85-2.9-3.85-4.83-1.92v-3.857z" fill="url(#f)"/>
<path style="color:#000000" d="m9.582 35.7c-2.903-0.45-2.903 3.41-0.975 5.34 3.857 1.929 24.61 2.628 26.04 0 1.3-2.398 1.929-3.857 0-5.786-2.156-2.156-23.12 0.8932-25.06 0.4466z" fill="url(#d)"/>
<path style="color:#000000" d="m8.607 10.18c8.794 2.545 17.46 2.214 26.04 0-2.126 9.74-1.987 16.83 0 27-9.203 3.543-17.69 2.24-26.04 0 0.6037-8.878 1.48-14.37 0-27z" fill="url(#e)"/>
</g>
<g fill-opacity=".8929">
<path d="m12.46 15c1.973-1.219 3.496-0.9382 4.821 0 0.5586 6.568 0.2886 12.93 0 19.29-1.607 1.22-3.214 1.585-4.821 0 0.4574-4.95 1.536-10.98 0-19.29z" fill="url(#h)"/>
<path fill="url(#g)" d="m8.969 13.64c0.7994 8.677 0.3611 13.92-0.1205 20.16 0.2411-0.1408 0.4821-0.2992 0.7232-0.4821 0.5378-6.198 0.9526-12.45 0-19.29-0.198-0.13-0.397-0.28-0.603-0.39z"/>
<path d="m20.18 15c0.96-0.96 2.89-0.96 4.82 0 0.4991 6.678 0.3624 14 0 20.25-1.607 1.271-3.214 1.327-4.821 0-0.2718-6.157-0.3743-13.45 0-20.25z" fill="url(#i)"/>
<path d="m27.89 15c1.435-0.5753 2.765-1.499 4.821 0-1.381 6.889-0.4686 13.01 0 19.29-1.524 0.9924-3.083 1.577-4.821 0-0.6379-6.429-1.071-12.86 0-19.29z" fill="url(#j)"/>
</g>
<g>
<path style="color:#000000" d="m9.744 19.62c-0.1726 0.203-3.065 0.203-3.065-1.726s-0.9643-0.9643-0.9643-4.821c-1.935-4.399 3.023-10.98 7.715-10.61 5.31 1.321 8.57-2.46 15.43 1.933 3.857 0.9643 5.786 0 6.75 2.893 0.9643 2.893 2.893 8.679 0 5.786-2.9-2.89-3.61-2.07-3.61-1.07 0 3.857-2.27 3.771-4.635 2.421s-6.222-4.243-7.186-0.3857c-0.9643 3.857-3.857 4.821-3.857 1.929 0-2.893-4.821-6.75-4.821-2.893s-2.71 4.091-1.756 6.547z" fill="url(#a)"/>
<path style="color:#000000" d="m8.635 9.426s-0.2979-0.8822 1.538-2.158 3.256 1.549 4.102 0.4164c0.8464-1.133 1.406-4.245 3.672-2.553l2.266 1.693s-6.416 5.641-11.58 2.602z" fill="url(#c)"/>
<path style="color:#000000" d="m23.24 5.979c1.88-2.048 2.43-0.616 2.76 0.021 0 0 2-2 3-1s1 2 1 2-3.853 2.295-6.758-1.021z" fill="url(#b)"/>
</g>
<g fill="#fff">
<g fill-opacity=".7054">
<path style="color:#000000" d="m9 41c-1.563-2.02-1.435-3.09-1-4 0.569 0.47 1.807 0.72 3.03 0.98-1.279 0.4-3.097 0.27-2.03 3.02z" filter="url(#q)"/>
<path style="color:#000000" d="m35.37 16.42c2.443-0.09852 4.096 0.9557 5.305 1.937 0 0-0.9263-4.042-5.305-1.937z" filter="url(#m)"/>
<path style="color:#000000" d="m12.8 15.41c0.6031 3.206 0.6626 5.597 0.8421 8.168 0.3395-3.093-0.5616-7.603 1.179-9.095-0.6737 0.09635-1.347 0.1743-2.021 0.9263z" filter="url(#p)"/>
<path style="color:#000000" d="m20.21 21.89 0.1684-6.568c0.8421-1.101 1.684-0.5859 2.526-0.6737-2.614 2.071-2.131 4.761-2.695 7.242z" filter="url(#o)"/>
<path style="color:#000000" d="m27.54 21.22-0.08421-5.305c0.948-1.203 1.525-0.5519 2.274-0.7579-1.673 1.078-1.802 3.7-2.189 6.063z" filter="url(#n)"/>
</g>
<path style="color:#000000" d="m6.063 11.45c-0.004-0.32 2.477-7.643 8.417-7.829 4.21 0.038 8.85-0.415 11.79 1.095-1.13-2.763-7.72-2.136-11.62-1.432-2.41-1.673-8.926 1.786-8.587 8.166z" filter="url(#l)"/>
<path style="color:#000000" d="m9.095 9.011c1.205-2.06 3.125-1.649 5.225-0.59 1.67-4.197 2.97-3.711 4.21-2.358-2.03-1.146-3.05 0.959-4.21 2.611-1.87-0.438-3.79-1.166-5.225 0.337z" filter="url(#k)"/>
</g>
</g>
</g>
</g>
</svg>
